<?xml version="1.0" standalone="no"?>
<!DOCTYPE svg PUBLIC "-//W3C//DTD SVG 1.1//EN" "http://www.w3.org/Graphics/SVG/1.1/DTD/svg11.dtd" >
<svg xmlns="http://www.w3.org/2000/svg">
<metadata>
This is a custom SVG webfont generated by Font Squirrel.
Foundry     : Dalton Maag Ltd
</metadata>
<defs>
<font id="AllerLightItalic" horiz-adv-x="1228" >
<font-face units-per-em="2048" ascent="1638" descent="-410" />
<missing-glyph horiz-adv-x="485" />
<glyph unicode=" "  horiz-adv-x="485" />
<glyph unicode="&#x09;" horiz-adv-x="485" />
<glyph unicode="&#xa0;" horiz-adv-x="485" />
<glyph unicode="!" horiz-adv-x="550" d="M197 0q0 47 8 86q4 23 9 44.5t11 43.5q37 6 80 6t78 -6q0 -47 -8 -86q-4 -23 -9.5 -44l-11.5 -44q-41 -6 -80 -6q-20 0 -40.5 1t-36.5 5zM289 420l178 1053q16 2 32.5 3t35.5 1q18 0 37.5 -1t39.5 -3l-192 -1053q-16 -2 -32.5 -3t-35.5 -1q-18 0 -33.5 1t-29.5 3z" />
<glyph unicode="&#x22;" horiz-adv-x="739" d="M254 922l96 551q14 2 36 3t40 1q20 0 36.5 -1t31.5 -3l-97 -551q-14 -2 -32.5 -3t-38.5 -1q-18 0 -38 1t-34 3zM643 922l96 551q14 2 36 3t40 1q20 0 36.5 -1t31.5 -3l-97 -551q-14 -2 -32.5 -3t-38.5 -1q-18 0 -38 1t-34 3z" />
<glyph unicode="#" horiz-adv-x="1431" d="M172 436l8 58l13 61h266l104 406h-258l8 57q4 18 6.5 30.5t6.5 28.5h268l88 338q23 4 38 4h38h27q17 0 32 -2l-86 -340h393l86 338q23 4 40 4h34h31q16 0 35 -2l-88 -340h243q-2 -16 -2 -26.5t-4 -26.5t-7 -31.5t-7 -31.5h-252l-105 -406h242q0 -16 -2 -28.5t-6 -28.5 q-4 -33 -12 -62h-252l-97 -377q-20 -2 -38 -2h-35h-30q-19 0 -30 2l95 377h-396l-94 -377q-23 -2 -38 -2h-38h-31q-17 0 -34 2l96 377h-256zM598 555h395l103 406h-396z" />
<glyph unicode="$" d="M188 41q8 31 20.5 64.5t31.5 62.5q70 -25 139.5 -43.5t177.5 -18.5q188 0 287.5 86.5t99.5 231.5q0 88 -48 153.5t-181 131.5q-66 31 -124.5 64.5t-103.5 74.5t-70.5 96t-25.5 129q0 166 105.5 270.5t306.5 124.5l28 181q31 6 60 6t57 -6l-28 -174q90 -4 160.5 -20.5 t123.5 -37.5q-6 -33 -19.5 -67.5t-29.5 -59.5q-47 25 -122 43.5t-161 18.5q-156 0 -242.5 -60.5t-86.5 -183.5q0 -90 60.5 -151.5t180.5 -122.5q84 -43 144.5 -82t98.5 -83t55.5 -97.5t17.5 -122.5q0 -94 -32 -173t-90 -138.5t-140 -98.5t-181 -53l-39 -228q-29 -6 -57 -6 q-33 0 -59 6l37 217h-9q-49 0 -101 7.5t-99 16.5t-85.5 20.5t-56.5 21.5z" />
<glyph unicode="%" horiz-adv-x="1988" d="M400 0l1243 1448q16 2 44 3t44 1q20 0 39.5 -1t40.5 -3l-1241 -1448q-23 -4 -41 -4h-37h-47q-29 0 -45 4zM238 950q0 92 25.5 184.5t76.5 168t130 123t186 47.5q158 0 232.5 -94.5t74.5 -252.5q0 -94 -27 -187t-79 -168t-132 -121t-186 -46q-152 0 -226.5 94t-74.5 252z M385 956q0 -238 166 -237q70 0 119 37t82 94t48 129t15 139q0 240 -170 240q-68 0 -117 -37t-80.5 -95.5t-47 -130t-15.5 -139.5zM1254 323q0 92 25.5 184.5t76.5 168t130 123t186 47.5q158 0 232.5 -94.5t74.5 -252.5q0 -94 -27 -187t-79 -168t-132 -121t-186 -46 q-152 0 -226.5 94t-74.5 252zM1401 329q0 -238 166 -237q70 0 119 37t82 94t48 129t15 139q0 240 -170 240q-68 0 -117 -37t-80.5 -95.5t-47 -130t-15.5 -139.5z" />
<glyph unicode="&#x26;" horiz-adv-x="1449" d="M188 385q0 80 24 154.5t69 138t109.5 112t144.5 76.5q-18 8 -47 25.5t-54.5 47.5t-45 75t-19.5 106q0 92 36.5 163t97 119t137.5 71.5t157 23.5q82 0 143 -9t119 -30q-14 -68 -45 -110q-41 12 -93.5 23t-121.5 11q-129 0 -206 -70.5t-77 -181.5q0 -57 22.5 -95 t57.5 -60.5t77 -31.5t83 -9h456q10 53 19.5 113.5t9.5 138.5v22q33 10 72 16.5t61 6.5q2 -23 2 -40v-34q0 -39 -8 -101.5t-18 -121.5h243l-8 -61q-4 -30 -14 -64h-244l-63 -365q-41 -231 -192.5 -350t-403.5 -119q-219 0 -349.5 101.5t-130.5 308.5zM354 389q0 -127 76 -205 t252 -78q129 0 211 34t132 93.5t76.5 140.5t43.5 173l45 262h-418q-96 0 -173 -32t-131 -87t-84 -132t-30 -169z" />
<glyph unicode="'" horiz-adv-x="350" d="M254 922l96 551q14 2 36 3t40 1q20 0 36.5 -1t31.5 -3l-97 -551q-14 -2 -32.5 -3t-38.5 -1q-18 0 -38 1t-34 3z" />
<glyph unicode="(" horiz-adv-x="620" d="M256 256q0 86 7 178t24 189q27 154 75 299t105 271t117.5 227.5t115.5 168.5q12 2 27.5 3t38.5 1q20 0 36.5 -1t33.5 -3l-86 -129q-55 -84 -116 -207t-118 -280.5t-90 -349.5q-18 -102 -25.5 -194.5t-7.5 -176.5q0 -115 11.5 -209t28 -169t33.5 -129t30 -87 q-20 -2 -39 -2h-39h-29q-14 0 -29 2q-43 92 -73.5 247.5t-30.5 350.5z" />
<glyph unicode=")" horiz-adv-x="620" d="M-23 -342l86 129q55 84 116 207t117 280.5t91 350.5q18 102 25.5 194t7.5 176q0 115 -11.5 209t-27.5 169t-33.5 129t-30.5 87q20 2 39 2h39h29q14 0 29 -2q43 -92 73.5 -247.5t30.5 -350.5q0 -86 -7 -178t-24 -188q-29 -154 -76 -299.5t-104 -271.5t-117.5 -227 t-115.5 -169q-23 -2 -37.5 -3t-28.5 -1q-20 0 -37 1t-33 3z" />
<glyph unicode="*" horiz-adv-x="946" d="M276 1157q8 29 20.5 53.5t29.5 46.5l227 -71q-18 -63 -57 -121zM334 803l174 213l46 -35q24 -18 42 -41l-188 -201q-45 25 -74 64zM608 1219l58 251q27 6 53 7q23 0 51 -7l-35 -251q-16 -4 -30 -5h-31h-33q-17 1 -33 5zM647 940q25 20 53.5 40.5t61.5 39.5l100 -215 q-27 -23 -49 -38t-49 -26zM772 1188l256 69q12 -37 12 -71q0 -18 -2 -29l-250 -90q-16 55 -16 121z" />
<glyph unicode="+" d="M295 653q0 25 3 58.5t15 70.5h357l67 381q14 2 31.5 3t36.5 1q14 0 33.5 -1t35.5 -3l-67 -381h350q0 -25 -3 -58.5t-15 -70.5h-355l-67 -381q-16 -4 -35 -4h-35h-35q-18 0 -32 4l67 381h-352z" />
<glyph unicode="," horiz-adv-x="399" d="M12 -231l176 405q16 2 35 3t37 1q20 0 36.5 -1t33.5 -3l-174 -405q-20 -4 -39 -5h-35h-37q-17 1 -33 5z" />
<glyph unicode="-" horiz-adv-x="686" d="M195 514q4 72 24 139h520q0 -10 -3 -32.5t-7 -38.5t-7 -37t-7 -31h-520z" />
<glyph unicode="." horiz-adv-x="399" d="M113 0q0 47 8 86q4 23 9 44.5t11 43.5q43 6 88 6t86 -6q0 -47 -8 -86q-4 -23 -9 -44t-11 -44q-53 -6 -88 -6q-23 0 -45.5 1t-40.5 5z" />
<glyph unicode="/" horiz-adv-x="714" d="M59 0l732 1473q31 6 65 6q16 0 37.5 -1t38.5 -5l-733 -1473q-16 -4 -39 -5t-39 -1q-35 0 -62 6z" />
<glyph unicode="0" d="M205 430q0 186 45 350t128 287t199.5 193.5t262.5 70.5q125 0 204.5 -45t126 -113.5t63.5 -148.5t17 -147q0 -186 -45 -350.5t-128 -287t-200.5 -193.5t-261.5 -71q-125 0 -204.5 45.5t-125.5 114t-63.5 148t-17.5 147.5zM352 428q0 -53 11.5 -110.5t42 -105.5t85 -79 t140.5 -31q100 0 186 54.5t149.5 156t100.5 244.5t37 322q0 53 -11.5 110.5t-42 105.5t-85 78.5t-140.5 30.5q-100 0 -186 -54t-149.5 -155.5t-100.5 -245t-37 -321.5z" />
<glyph unicode="1" d="M266 0q0 31 7.5 66.5t13.5 56.5h342l172 979l-322 -152q-16 23 -31.5 57.5t-17.5 57.5l535 262h16l-213 -1204h315q0 -31 -7 -67t-13 -56h-797z" />
<glyph unicode="2" d="M135 25l455 428l164 160q72 73 119 138.5t71.5 128t24.5 130.5q0 86 -53.5 141t-188.5 55q-98 0 -177 -27.5t-144 -56.5q-10 20 -15.5 52t-7.5 67q57 27 150.5 59.5t209.5 32.5q184 0 279.5 -84t95.5 -225q0 -84 -27.5 -160t-78.5 -149.5t-123 -148t-158 -154.5 l-305 -285h602q0 -31 -7 -69t-13 -58h-867z" />
<glyph unicode="3" d="M125 -86q10 29 28.5 61.5t36.5 57.5q49 -29 134.5 -48.5t171.5 -19.5q94 0 171.5 27.5t134 80t87.5 128t31 172.5q0 70 -24 118t-63.5 75.5t-92 39.5t-109.5 12q-43 0 -87 -3t-89 -13l-13 27l492 553h-572q0 31 7.5 69.5t13.5 59.5h801l6 -17l-500 -563q94 -2 165 -29.5 t118 -73.5t70.5 -107.5t23.5 -133.5q0 -127 -43 -228.5t-119 -173t-181.5 -109.5t-229.5 -38q-41 0 -93.5 5t-103.5 15.5t-97 25t-75 30.5z" />
<glyph unicode="4" d="M150 176l792 1182q29 -4 61.5 -23.5t51.5 -36.5l-678 -1013h473l78 436q12 2 35.5 3t37.5 1q12 0 34 -1t32 -3l-78 -436h207q0 -31 -7 -70t-13 -59h-209l-49 -279q-12 -2 -36 -3t-38 -1q-12 0 -34 1t-32 3l49 279h-669z" />
<glyph unicode="5" d="M154 -96q10 29 27.5 64.5t35.5 58.5q51 -23 110.5 -42.5t166.5 -19.5q92 0 170.5 27.5t136 83t90.5 138.5t33 192q0 113 -65.5 178t-207.5 65q-66 0 -121 -8l-96 -14l-26 -4l-13 16l144 672h641q0 -31 -7.5 -70t-13.5 -59h-514l-88 -422q41 8 81 9t56 1q98 0 170 -27.5 t119 -74.5t69.5 -110.5t22.5 -137.5q0 -145 -50 -254t-133 -181.5t-190.5 -109.5t-222.5 -37q-119 0 -196.5 19.5t-128.5 46.5z" />
<glyph unicode="6" d="M246 406q0 113 25.5 233.5t75.5 236t126 221t177.5 189.5t229.5 140.5t281 72.5q10 -41 10 -78v-10q0 -6 -2 -35q-133 -16 -247.5 -67.5t-206.5 -132t-159 -189t-103 -237.5q66 86 160 134t216 48q76 0 139.5 -23.5t109.5 -69.5t73 -113t27 -155q0 -147 -47.5 -257.5 t-123 -186.5t-171 -114t-189.5 -38q-111 0 -187.5 37t-124.5 97.5t-68.5 137.5t-20.5 159zM393 365q0 -49 14.5 -97.5t46 -86.5t81 -61.5t120.5 -23.5q92 0 163 39t119 102.5t72.5 145.5t24.5 166q0 262 -254 262q-63 0 -131.5 -26.5t-125 -82t-93.5 -139t-37 -198.5z" />
<glyph unicode="7" d="M305 -90l760 1272h-713q0 31 7.5 69.5t13.5 59.5h907l8 -8l-864 -1457q-78 11 -119 64z" />
<glyph unicode="8" d="M197 317q0 88 33.5 161t91 130.5t131 100.5t153.5 71q-35 18 -71.5 43t-67.5 62t-51.5 88t-20.5 121q0 78 36 146.5t98.5 120.5t148.5 82t186 30q68 0 132.5 -17.5t116.5 -53.5t84 -92.5t32 -133.5q0 -76 -29 -139.5t-75 -113t-106.5 -85t-123.5 -58.5q51 -23 98 -55.5 t84 -76.5t59.5 -100t22.5 -126q0 -106 -44 -189t-117.5 -140.5t-171 -87.5t-203.5 -30q-90 0 -168 18.5t-135.5 58.5t-90 105.5t-32.5 159.5zM344 332q0 -63 22.5 -108.5t60.5 -73t90 -41t112 -13.5q92 0 162.5 25.5t120 70t74 102.5t24.5 122q0 106 -75 181t-196 118 q-90 -25 -162.5 -63t-124 -87t-80 -108t-28.5 -125zM541 1083q0 -57 23.5 -97t58 -67.5t73.5 -44t68 -26.5q158 45 239.5 124t81.5 191q0 55 -20.5 93t-54 61.5t-74.5 34t-84 10.5q-78 0 -136.5 -23.5t-97 -62.5t-58 -89.5t-19.5 -103.5z" />
<glyph unicode="9" d="M276 729q0 147 47.5 258t123 186.5t171 113.5t189.5 38q111 0 187.5 -37t124.5 -97.5t68.5 -137t20.5 -158.5q0 -113 -25.5 -233.5t-75.5 -236.5t-126 -221.5t-177.5 -189.5t-229.5 -140t-281 -73q-4 23 -8 53.5t0 69.5q133 14 247.5 66.5t206.5 133.5t159 189.5 t103 237.5q-66 -86 -159.5 -134t-216.5 -48q-76 0 -139.5 23.5t-109.5 69.5t-73 112.5t-27 154.5zM420 752q0 -262 254 -263q63 0 130.5 27t125 82t94.5 139t37 199q0 49 -14.5 97t-46 86t-82 61.5t-119.5 23.5q-92 0 -163 -39t-119 -102.5t-72.5 -145t-24.5 -165.5z" />
<glyph unicode=":" horiz-adv-x="399" d="M113 0q0 47 8 86q4 23 9 44.5t11 43.5q43 6 88 6t86 -6q0 -47 -8 -86q-4 -23 -9 -44t-11 -44q-53 -6 -88 -6q-23 0 -45.5 1t-40.5 5zM246 758q0 47 8 86q4 23 9 44.5t11 43.5q43 6 88 6t86 -6q0 -47 -8 -86q-4 -23 -9 -44t-11 -44q-53 -6 -88 -6q-23 0 -45.5 1t-40.5 5z " />
<glyph unicode=";" horiz-adv-x="399" d="M-27 -231l176 405q16 2 35 3t37 1q20 0 36.5 -1t33.5 -3l-174 -405q-20 -4 -39 -5h-35h-37q-17 1 -33 5zM269 758q0 47 8 86q4 23 9 44.5t11 43.5q43 6 88 6t86 -6q0 -47 -8 -86q-4 -23 -9 -44t-11 -44q-53 -6 -88 -6q-23 0 -45.5 1t-40.5 5z" />
<glyph unicode="&#x3c;" d="M297 637q0 33 7 76t20 73l884 359q0 -18 -2 -42t-7 -47l-9 -41q-4 -17 -6 -24l-729 -286l628 -279q2 -35 -8 -80t-18 -65z" />
<glyph unicode="=" d="M266 457q0 25 3 58.5t16 70.5h843q0 -25 -3 -58.5t-15 -70.5h-844zM330 834q0 25 3 58.5t15 70.5h844q0 -25 -3 -59t-15 -70h-844z" />
<glyph unicode="&#x3e;" d="M254 281v8q0 18 3 40.5t7 44t8 38t7 22.5l729 287l-629 278v9q0 35 9 76.5t18 60.5l759 -357q0 -33 -7 -75.5t-19 -73.5z" />
<glyph unicode="?" horiz-adv-x="944" d="M317 1427q92 29 164 40.5t160 11.5q100 0 175 -29t125 -76t74.5 -108.5t24.5 -128.5q0 -94 -37.5 -173t-99 -141.5t-139.5 -106.5t-160 -67l-39 -229h-139l55 317l72 23q68 20 128 54t104 79t70 101.5t26 125.5q0 113 -76 171.5t-205 58.5q-90 0 -149.5 -14.5 t-118.5 -35.5q-6 20 -7 47t-6 58zM338 4q2 47 8 91t23 83q39 6 86 6t88 -6q-4 -47 -11.5 -90t-23.5 -84q-41 -6 -84 -6q-47 0 -86 6z" />
<glyph unicode="@" horiz-adv-x="1978" d="M195 432q0 123 28.5 250t87 244.5t146.5 221t208.5 180.5t274.5 122t342 45q156 0 291 -42t234.5 -127t155.5 -214t56 -303q0 -127 -35.5 -250t-103.5 -220t-167 -157.5t-228 -60.5q-137 0 -223 55q-59 -39 -137 -56.5t-156 -17.5q-76 0 -135.5 25t-99.5 68t-60.5 100 t-20.5 123q0 141 47.5 260t128 205t189 134t229.5 48q74 0 137.5 -11.5t131.5 -29.5l-158 -758q29 -23 66.5 -29t70.5 -6q92 0 164 53.5t122 137.5t75.5 186.5t25.5 200.5q0 276 -160.5 419.5t-453.5 143.5q-221 0 -394.5 -80t-292 -211t-180 -299t-61.5 -342 q0 -170 48 -291.5t132 -199.5t197.5 -115t245.5 -37q94 0 181 16.5t159 41.5l15 -42q9 -26 15 -67q-74 -31 -173 -48t-232 -17q-154 0 -287 46t-232.5 139t-156.5 234.5t-57 331.5zM805 449q0 -115 50 -169.5t163 -54.5q49 0 95 11.5t106 42.5l133 649q-51 14 -107 14 q-92 0 -172 -37t-139.5 -102.5t-94 -156.5t-34.5 -197z" />
<glyph unicode="A" horiz-adv-x="1173" d="M88 0l657 1473q16 2 48 3t51 1q23 0 46 -1t34 -3l217 -1473q-10 -2 -33 -3t-45 -1q-18 0 -40 1t-36 3l-51 385h-528l-166 -385q-16 -2 -36 -3t-42 -1q-20 0 -42 1t-34 3zM463 516h455l-107 803z" />
<glyph unicode="B" horiz-adv-x="1179" d="M211 0l258 1473l57 6t79 8t85 6t78 2q203 0 310.5 -77t107.5 -228q0 -80 -24.5 -146.5t-65.5 -118t-94.5 -85t-110.5 -52.5q51 -8 97 -31.5t82 -62.5t56.5 -93t20.5 -124q0 -135 -51.5 -230t-137.5 -155.5t-197.5 -88.5t-232.5 -28q-84 0 -174 7.5t-143 17.5zM373 111 q25 -4 68.5 -7.5t93.5 -3.5q82 0 163.5 15.5t147 55.5t106.5 108.5t41 175.5q0 74 -24.5 123t-67.5 79.5t-101.5 43t-125.5 12.5h-195zM502 846h180q170 0 260 85t90 226q0 109 -61.5 164t-210.5 55q-47 0 -94.5 -4t-71.5 -8z" />
<glyph unicode="C" horiz-adv-x="1187" d="M248 549q0 174 46 344t142 304t243.5 217t352.5 83q117 0 196 -18.5t113 -30.5q-8 -37 -17 -61.5t-30 -59.5q-51 18 -111.5 30.5t-154.5 12.5q-164 0 -282.5 -67.5t-195.5 -180t-114 -259t-37 -304.5q0 -223 106.5 -340t305.5 -117q90 0 169 18.5t138 49.5 q31 -47 37 -117q-72 -35 -174 -56.5t-205 -21.5q-246 0 -387 147.5t-141 426.5z" />
<glyph unicode="D" horiz-adv-x="1396" d="M211 0l258 1473q29 4 69 8t82 7t80.5 5t65.5 2q184 0 307 -45t198 -126t105.5 -191.5t30.5 -239.5q0 -172 -45 -337t-145.5 -294t-259 -208t-386.5 -79q-51 0 -105 2.5t-102.5 5.5t-88 8t-64.5 9zM375 123q14 -2 40.5 -4t57.5 -4t62.5 -3t56.5 -1q162 0 287 57 t208.5 158.5t128 240t44.5 297.5q0 119 -24 212t-81 157.5t-153.5 99.5t-239.5 35q-39 0 -87 -4t-83 -10z" />
<glyph unicode="E" horiz-adv-x="1062" d="M211 0l258 1473h758q0 -66 -23 -130h-614l-88 -497h493q0 -31 -5 -64.5t-17 -64.5h-494l-102 -588h633q-2 -39 -7.5 -67.5t-17.5 -61.5h-774z" />
<glyph unicode="F" horiz-adv-x="999" d="M211 0l258 1473h694q-2 -35 -7 -68t-15 -62h-551l-88 -497h477q-2 -35 -7 -68t-16 -61h-477l-125 -717q-16 -2 -33.5 -3t-39.5 -1q-20 0 -40 1t-30 3z" />
<glyph unicode="G" horiz-adv-x="1343" d="M248 551q0 180 44 350t139 302t244.5 213t360.5 81q109 0 190 -18.5t115 -30.5q-8 -37 -17 -62.5t-30 -60.5q-51 18 -111.5 30.5t-154.5 12.5q-164 0 -282.5 -67.5t-195.5 -179t-114 -258t-37 -304.5q0 -223 106.5 -340t305.5 -117q66 0 128 10.5t116 32.5l108 615 q14 2 35 3t39 1q20 0 37.5 -1t32.5 -3l-125 -703q-37 -18 -84 -32.5t-100.5 -25.5t-110 -17.5t-111.5 -6.5q-123 0 -220 40t-165.5 115t-105.5 181.5t-37 239.5z" />
<glyph unicode="H" horiz-adv-x="1361" d="M213 0l258 1473q12 2 30.5 3t41.5 1q16 0 36.5 -1t32.5 -3l-110 -627h655l111 627q12 2 30.5 3t40.5 1q16 0 37 -1t33 -3l-258 -1473q-12 -2 -32.5 -3t-41.5 -1q-23 0 -40 1t-27 3l125 717h-656l-125 -717q-12 -2 -32.5 -3t-40.5 -1q-23 0 -40.5 1t-27.5 3z" />
<glyph unicode="I" horiz-adv-x="565" d="M213 0l258 1473q14 2 34.5 3t37.5 1q23 0 39 -1t30 -3l-258 -1473q-16 -2 -33.5 -3t-39.5 -1q-20 0 -39 1t-29 3z" />
<glyph unicode="J" horiz-adv-x="772" d="M59 4q4 39 14.5 69.5t24.5 57.5q23 -8 60 -17.5t78 -9.5q47 0 86.5 7.5t71.5 29t54.5 62.5t34.5 108l185 1037h-256q2 35 6 65.5t14 59.5h397l-206 -1180q-16 -90 -51 -151.5t-84.5 -98.5t-114 -52.5t-137.5 -15.5q-61 0 -101.5 7.5t-75.5 21.5z" />
<glyph unicode="K" horiz-adv-x="1167" d="M213 0l258 1473q14 2 34.5 3t37.5 1q23 0 39 -1t30 -3l-258 -1473q-16 -2 -33.5 -3t-39.5 -1q-20 0 -39 1t-29 3zM578 754l606 719q16 2 33.5 3t37.5 1t44 -1t47 -3l-603 -715l408 -758q-23 -2 -44.5 -3t-43.5 -1q-23 0 -40 1t-34 3z" />
<glyph unicode="L" horiz-adv-x="1003" d="M211 0l258 1473q12 2 32.5 3t41.5 1q23 0 39 -1t30 -3l-235 -1344h598q-2 -35 -7 -66.5t-18 -62.5h-739z" />
<glyph unicode="M" horiz-adv-x="1624" d="M170 0l330 1473q12 2 38.5 3t49.5 1t43 -1t35 -3l225 -977l555 977q12 2 39.5 3t50.5 1q20 0 43 -1t37 -3l-184 -1473q-16 -2 -34 -3t-38 -1q-23 0 -42.5 1t-29.5 3l164 1239l-534 -934q-16 -4 -30 -4h-28h-27q-13 0 -26 4l-223 934l-273 -1239q-16 -2 -31.5 -3t-37.5 -1 q-20 0 -41 1t-31 3z" />
<glyph unicode="N" horiz-adv-x="1376" d="M211 0l258 1473q14 2 38.5 3t41.5 1q18 0 36.5 -1t30.5 -3l455 -1240l215 1240q12 2 31.5 3t38.5 1q16 0 35.5 -1t31.5 -3l-256 -1473q-12 -2 -34.5 -3t-42.5 -1q-16 0 -38 1t-34 3l-455 1233l-213 -1233q-16 -2 -32.5 -3t-38.5 -1q-23 0 -40.5 1t-27.5 3z" />
<glyph unicode="O" horiz-adv-x="1441" d="M248 510q0 203 53 383t149.5 314t231.5 212t301 78q119 0 207 -42t146.5 -114.5t87 -170t28.5 -207.5q0 -209 -53 -390.5t-150.5 -313.5t-233.5 -208t-300 -76q-117 0 -204 40t-145.5 112t-88 170t-29.5 213zM395 524q0 -193 82 -306.5t260 -113.5q121 0 224.5 67 t180.5 180.5t120 267t43 329.5q0 92 -19.5 169t-61.5 132.5t-106.5 87t-156.5 31.5q-125 0 -229.5 -65.5t-179.5 -179t-116 -267.5t-41 -332z" />
<glyph unicode="P" horiz-adv-x="1136" d="M211 0l258 1473q20 2 56 7t77 8l81 6q40 3 71 3q100 0 186 -20.5t147.5 -64.5t96.5 -113.5t35 -170.5q0 -145 -49.5 -249.5t-131.5 -171t-188.5 -98t-222.5 -31.5q-45 0 -90 2t-80 6l-103 -586q-16 -2 -33.5 -3t-39.5 -1q-20 0 -40 1t-30 3zM479 715q39 -6 70 -7t69 -1 q213 0 331 97t118 300q0 150 -82 209t-260 59q-35 0 -73 -3t-60 -7z" />
<glyph unicode="Q" horiz-adv-x="1441" d="M248 510q0 203 53 383t149.5 314t231.5 212t301 78q119 0 207 -42t146.5 -114.5t87 -170t28.5 -207.5q0 -209 -53 -390.5t-150.5 -313.5t-233.5 -208t-300 -76q-117 0 -204 40t-145.5 112t-88 170t-29.5 213zM395 524q0 -193 82 -306.5t260 -113.5q121 0 224.5 67 t180.5 180.5t120 267t43 329.5q0 92 -19.5 169t-61.5 132.5t-106.5 87t-156.5 31.5q-125 0 -229.5 -65.5t-179.5 -179t-116 -267.5t-41 -332zM811 -186q6 35 18.5 63.5t28.5 59.5l428 -84q-6 -35 -16 -65t-31 -62z" />
<glyph unicode="R" horiz-adv-x="1157" d="M211 0l260 1479q147 18 279 18q84 0 163.5 -18.5t141 -60.5t98.5 -108.5t37 -164.5q0 -109 -36 -190t-92 -141t-125 -102t-134 -73l305 -639q-23 -4 -43 -4h-41h-42q-19 0 -36 4l-330 688l82 35q47 20 106.5 50t111 76t86 111.5t34.5 157.5q0 258 -291 258 q-41 0 -72.5 -2t-78.5 -8l-240 -1366q-16 -2 -36.5 -3t-38.5 -1q-20 0 -38 1t-30 3z" />
<glyph unicode="S" horiz-adv-x="1089" d="M115 33q8 31 22.5 66.5t32.5 64.5q74 -25 142.5 -41.5t164.5 -16.5q207 0 309.5 90.5t102.5 235.5q0 43 -10.5 81t-36 73t-69.5 66.5t-109 66.5q-72 37 -129.5 72.5t-98.5 81t-62.5 100.5t-21.5 131q0 86 36 157.5t101.5 124t157.5 82t207 29.5q109 0 187.5 -17.5 t134.5 -39.5q-6 -33 -19.5 -68t-30.5 -59q-47 25 -118.5 43t-143.5 18q-172 0 -266 -63.5t-94 -186.5q0 -45 11 -81.5t38 -69.5t69 -62.5t101 -60.5q80 -43 140.5 -83t100.5 -85t60 -100.5t20 -124.5q0 -117 -44 -207t-120.5 -151.5t-181 -92.5t-223.5 -31q-129 0 -214 17.5 t-146 40.5z" />
<glyph unicode="T" horiz-adv-x="1001" d="M283 1346q0 63 22 127h895q0 -63 -22 -127h-377l-236 -1346q-14 -2 -33.5 -3t-37.5 -1q-20 0 -40 1t-30 3l235 1346h-376z" />
<glyph unicode="U" horiz-adv-x="1351" d="M270 369q0 45 6.5 94t16.5 102l160 908q14 2 35.5 3t39.5 1q20 0 37 -1t31 -3l-156 -889q-10 -61 -16 -116.5t-6 -100.5q0 -141 63.5 -198.5t212.5 -57.5q100 0 171 31.5t120 92t80 148.5t51 201l156 889q14 2 32.5 3t41.5 1q16 0 35.5 -1t33.5 -3l-164 -930 q-25 -137 -68.5 -242.5t-113.5 -178.5t-168 -110t-231 -37q-400 1 -400 394z" />
<glyph unicode="V" horiz-adv-x="1236" d="M342 1473q10 2 32.5 3t45.5 1q18 0 39.5 -1t36.5 -3l176 -1319l569 1319q16 2 36.5 3t43.5 1q20 0 42.5 -1t35.5 -3l-662 -1473q-16 -2 -45.5 -3t-48.5 -1q-23 0 -49.5 1t-36.5 3z" />
<glyph unicode="W" horiz-adv-x="1828" d="M352 1473q12 2 33 3t41 1t41.5 -1t34.5 -3l43 -1297l528 1297q12 2 44 3t50 1q16 0 42 -1t40 -3l101 -1297l477 1297q16 2 34.5 3t41.5 1q20 0 42.5 -1t34.5 -3l-571 -1473q-16 -2 -45 -3t-47 -1q-23 0 -50.5 1t-39.5 3l-101 1266l-522 -1266q-14 -2 -43 -3t-49 -1t-52 1 t-42 3z" />
<glyph unicode="X" horiz-adv-x="1204" d="M55 0l529 782l-228 691q20 2 38 3t40 1q16 0 33.5 -1t34.5 -3l225 -703l-514 -770q-16 -2 -38.5 -3t-43.5 -1q-18 0 -40 1t-36 3zM745 770l469 703q16 2 37 3t37 1q23 0 40.5 -1t35.5 -3l-473 -707l272 -766q-16 -4 -35 -4h-36q-16 0 -35 1t-31 3z" />
<glyph unicode="Y" horiz-adv-x="1103" d="M297 1473q12 2 34.5 3t43.5 1q18 0 40.5 -1t37.5 -3l225 -775l455 775q16 2 36.5 3t42.5 1q20 0 42 -1t34 -3l-565 -936l-92 -537q-16 -2 -33.5 -3t-38.5 -1q-23 0 -41 1t-29 3l97 545z" />
<glyph unicode="Z" horiz-adv-x="1079" d="M82 16l913 1327h-647q2 33 7 67t16 63h856l6 -15l-918 -1329h705q-4 -37 -8 -67.5t-17 -61.5h-905z" />
<glyph unicode="[" horiz-adv-x="688" d="M133 -344l330 1876h395q-2 -27 -7 -60.5t-13 -56.5h-256l-289 -1644h256q-2 -23 -7 -55.5t-14 -59.5h-395z" />
<glyph unicode="\" horiz-adv-x="712" d="M299 1473q39 6 72 6q37 0 61 -6l219 -1473q-35 -6 -65 -6q-16 0 -35 1t-31 5z" />
<glyph unicode="]" horiz-adv-x="651" d="M-2 -344q2 27 7 60.5t13 56.5h256l289 1644h-256q2 23 7 55.5t14 59.5h395l-330 -1876h-395z" />
<glyph unicode="^" horiz-adv-x="1071" d="M262 762l445 711q20 4 41.5 5t37.5 1q47 0 84 -6l195 -711h-137l-160 598l-369 -598h-137z" />
<glyph unicode="_" horiz-adv-x="985" d="M-20.5 -106.5q4.5 28.5 18.5 57.5h975q0 -57 -19 -113h-974q-5 27 -0.5 55.5z" />
<glyph unicode="`" horiz-adv-x="1024" d="M555 1481q23 2 47.5 3t48.5 1h46q24 0 46 -4l193 -267q-37 -6 -70 -6q-45 0 -82 6z" />
<glyph unicode="a" horiz-adv-x="1110" d="M184 322q0 139 44 273t130 239.5t214 170t296 64.5q63 0 135 -11t115 -28l-104 -592l-36 -197q-15 -81 -15 -155q0 -29 1 -46t5 -40q-12 -2 -34 -3t-36 -1q-12 0 -33.5 1t-31.5 3q-6 51 -7 102q0 14 2 35t6.5 44.5t9.5 45.5l9 41q-18 -43 -54 -93t-87 -95t-114.5 -75 t-139.5 -30q-135 0 -205 91.5t-70 255.5zM328 344q0 -117 43 -183.5t125 -66.5q76 0 144.5 49.5t123.5 131t95 188t63 221.5l47 252q-55 14 -142 14q-104 0 -195 -46t-158.5 -128t-106.5 -192.5t-39 -239.5z" />
<glyph unicode="b" horiz-adv-x="1142" d="M182 14l185 1053l34 201q14 84 15 157v43q0 14 -2 37q12 2 35.5 3t37.5 1h33q20 0 31 -2q2 -23 2 -40v-33q0 -25 -4 -62t-9 -78t-12.5 -83l-13.5 -74l-45 -258q57 82 138 136t208 54q137 0 224 -99.5t87 -275.5q0 -158 -49 -290t-139 -227t-218 -148.5t-286 -53.5 q-33 0 -69.5 3.5t-71.5 9.5t-64 13t-47 13zM334 109q29 -8 65.5 -12.5t69.5 -4.5q96 0 188.5 36t165 107.5t116.5 178t44 245.5q0 137 -59.5 212t-163.5 75q-55 0 -110.5 -23.5t-103.5 -79t-87 -145.5t-62 -221z" />
<glyph unicode="c" horiz-adv-x="937" d="M199 389q0 125 41 248t118.5 218t191.5 154.5t261 59.5q66 0 123 -13.5t92 -25.5q-2 -29 -13.5 -63.5t-25.5 -55.5q-37 14 -89 26.5t-107 12.5q-115 0 -199 -51t-139.5 -130t-83 -175t-27.5 -188q0 -160 77 -236t224 -76q57 0 115.5 11.5t107.5 27.5q10 -23 16.5 -54.5 t6.5 -55.5q-29 -12 -65 -20.5t-72.5 -14.5t-69.5 -9.5t-55 -3.5q-221 0 -324.5 109.5t-103.5 304.5z" />
<glyph unicode="d" horiz-adv-x="1099" d="M188 322q0 139 44 273t130.5 239.5t214.5 170t295 64.5q27 0 60 -3t57 -7l36 205q15 88 15 161v43q0 14 -2 37q12 2 36 3t38 1h33q20 0 31 -2q2 -23 2 -40v-33q0 -25 -3.5 -62t-9.5 -77l-12 -81q-6 -41 -12 -73l-125 -703l-36 -197q-15 -81 -15 -155q0 -29 1 -46t5 -40 q-12 -2 -34 -3t-36 -1q-12 0 -33.5 1t-31.5 3q-4 16 -5.5 32.5t-1.5 45.5q0 14 2.5 37.5t6.5 50.5t9 53.5t11 48.5q-18 -43 -54 -93t-87 -95t-114.5 -75t-139.5 -30q-135 0 -205 91.5t-70 255.5zM332 344q0 -117 43 -183.5t125 -66.5q76 0 144.5 49.5t123.5 131t95 188 t63 221.5l47 252q-55 14 -142 14q-104 0 -195 -46t-158.5 -128t-106.5 -192.5t-39 -239.5z" />
<glyph unicode="e" horiz-adv-x="1003" d="M195 387q0 125 43 247t119.5 218t184 156.5t236.5 60.5q135 0 204 -66.5t69 -160.5q0 -88 -43 -151.5t-119 -107.5t-179.5 -73t-222.5 -47l-149 -25v-28q0 -147 71.5 -231.5t227.5 -84.5q39 0 82 6t82 15.5t73.5 19.5t59.5 19q10 -23 15 -54.5t5 -56.5 q-29 -12 -70.5 -24.5t-88.5 -21.5t-96.5 -15.5t-92.5 -6.5q-117 0 -195.5 33t-126.5 89.5t-68.5 131t-20.5 158.5zM356 553l115 18q207 33 322.5 92.5t115.5 165.5q0 55 -39 89t-114 34q-74 0 -137.5 -33.5t-115.5 -89t-90.5 -128t-56.5 -148.5z" />
<glyph unicode="f" horiz-adv-x="653" d="M-180 -477q10 41 19 63l22 52q20 -8 44.5 -13.5t57.5 -5.5q49 0 89 10.5t70 39t51.5 82.5t35.5 140l182 1039h-170q0 29 3 56.5t16 57.5h170l16 93q35 193 125 289t262 96q45 0 80 -6.5t57 -16.5q-10 -41 -20 -63l-23 -52q-20 8 -43.5 14.5t-56.5 6.5q-49 0 -88 -12.5 t-68.5 -43t-52.5 -84t-37 -135.5l-16 -86h272q0 -29 -3 -56t-15 -58h-273l-182 -1045q-35 -205 -125 -295t-262 -90q-45 0 -79.5 6.5t-57.5 16.5z" />
<glyph unicode="g" horiz-adv-x="1095" d="M84 -455q0 29 11 62t24 53q45 -14 99 -25.5t120 -11.5q117 0 196.5 25.5t133 76t84 124t51.5 171.5l51 248q-18 -43 -54 -93t-87 -95t-114.5 -75t-139.5 -30q-135 0 -205 91.5t-70 255.5q0 139 44 273t130 239.5t214 170t296 64.5q63 0 135 -11t115 -28l-184 -1030 q-23 -123 -68 -216t-119.5 -156.5t-180 -95.5t-247.5 -32q-47 0 -115.5 11t-119.5 34zM328 344q0 -117 44 -183.5t124 -66.5q76 0 144.5 49.5t123.5 131t95 188t63 221.5l47 252q-55 14 -142 14q-104 0 -195 -46t-158.5 -128t-106.5 -192.5t-39 -239.5z" />
<glyph unicode="h" horiz-adv-x="1136" d="M180 0l187 1067l34 201q14 84 15 157v43q0 14 -2 37q12 2 35.5 3t37.5 1h33q20 0 31 -2q2 -23 2 -40v-33q0 -25 -4 -62t-9 -78t-12.5 -83l-13.5 -74l-49 -269q29 39 66.5 76t85 64.5t101.5 44t118 16.5q127 0 198.5 -67.5t71.5 -198.5q0 -31 -4 -70t-10 -74l-115 -659 q-12 -2 -33.5 -3t-36.5 -1q-12 0 -33.5 1t-31.5 3l108 618q6 37 10.5 75t4.5 67q0 96 -49.5 140t-135.5 44q-61 0 -119.5 -24.5t-109.5 -78t-90 -140.5t-60 -209l-86 -492q-12 -2 -33.5 -3t-35.5 -1q-12 0 -34 1t-32 3z" />
<glyph unicode="i" horiz-adv-x="542" d="M225 0l164 930h-127q0 29 5 57.5t14 56.5h262l-183 -1044q-12 -2 -34.5 -3t-36.5 -1q-12 0 -33 1t-31 3zM385 1300l5 46q3 27 7 45q4 16 9.5 40.5l9.5 41.5q18 2 44.5 3t45.5 1q16 0 40.5 -1t41.5 -3q-2 -16 -4 -41t-6 -41l-11 -45l-10 -46q-16 -2 -40.5 -3t-41.5 -1 q-18 0 -45 1t-45 3z" />
<glyph unicode="j" horiz-adv-x="538" d="M-176 -473q4 23 15 57.5t24 55.5q25 -10 61.5 -15.5t65.5 -5.5q78 0 132 47t75 164l192 1100h-127q0 29 5 57.5t14 56.5h262l-211 -1196q-31 -170 -108 -259t-232 -89q-105 0 -168 27zM385 1300l5 46q3 27 7 45q4 16 9.5 40.5l9.5 41.5q18 2 44.5 3t45.5 1q16 0 40.5 -1 t41.5 -3q-2 -16 -4 -41t-6 -41l-11 -45l-10 -46q-16 -2 -40.5 -3t-41.5 -1q-18 0 -45 1t-45 3z" />
<glyph unicode="k" horiz-adv-x="974" d="M180 0l189 1067l34 201q14 84 15 157v43q0 14 -2 37q12 2 35.5 3t37.5 1h33q20 0 31 -2q2 -23 2 -40v-33q0 -25 -4 -62t-9 -78t-12.5 -83l-13.5 -74l-201 -1137q-12 -2 -34.5 -3t-34.5 -1q-14 0 -35 1t-31 3zM502 539l321 383q25 31 40.5 62.5t21.5 59.5q37 6 69 7 q41 0 78 -7q-8 -41 -30.5 -76.5t-61.5 -82.5l-289 -338l289 -547q-41 -6 -74 -6q-41 0 -80 6z" />
<glyph unicode="l" horiz-adv-x="567" d="M211 147q0 27 6 64l152 856l34 201q14 84 15 157v43q0 14 -2 37q12 2 35.5 3t37.5 1h33q20 0 31 -2q2 -23 2 -40v-33q0 -25 -4 -62t-9 -78t-12.5 -83l-13.5 -74l-160 -895q-6 -31 -6 -54q0 -33 9.5 -51t23.5 -27.5t30.5 -11.5t32.5 -2q25 0 50.5 4t40.5 9q8 -23 11 -52.5 t1 -54.5q-31 -10 -72 -15t-71 -5q-37 0 -72 7t-62.5 25.5t-44 51t-16.5 81.5z" />
<glyph unicode="m" horiz-adv-x="1695" d="M180 0l107 610l36 198q15 81 15 155q0 29 -1 46t-5 40q12 2 33.5 3t35.5 1q12 0 34 -1t32 -3q4 -16 5 -33t1 -45q0 -29 -2 -54.5t-6 -48.5q59 82 149.5 141.5t204.5 59.5q111 0 168 -59.5t68 -157.5q72 100 165 158.5t207 58.5q238 0 238 -266q0 -31 -4 -70t-10 -74 l-115 -659q-12 -2 -33.5 -3t-36.5 -1q-12 0 -33.5 1t-31.5 3l108 618q6 37 10.5 75t4.5 67q0 96 -37 140t-119 44q-55 0 -109.5 -24.5t-101.5 -79t-86 -140.5t-59 -208l-86 -492q-12 -2 -34 -3t-36 -1q-12 0 -33.5 1t-31.5 3l108 618q6 37 10 75t4 67q0 96 -36.5 140 t-118.5 44q-55 0 -109.5 -24.5t-101.5 -79t-86 -140.5t-60 -208l-86 -492q-12 -2 -33.5 -3t-35.5 -1q-12 0 -34 1t-32 3z" />
<glyph unicode="n" horiz-adv-x="1163" d="M207 0l106 610l36 198q15 81 16 155q0 29 -1.5 46t-5.5 40q12 2 34 3t36 1q12 0 33.5 -1t32.5 -3q4 -16 5 -36t1 -48q0 -53 -8.5 -102.5t-18.5 -86.5q18 43 55 93.5t88.5 95.5t116 74.5t139.5 29.5q123 0 192 -67.5t69 -198.5q0 -31 -4.5 -70t-10.5 -74l-114 -659 q-12 -2 -34 -3t-36 -1q-12 0 -33.5 1t-32.5 3l109 618q6 37 10 76t4 68q0 98 -47 140t-121 42t-140.5 -48t-121.5 -129t-95 -186.5t-60 -220.5l-64 -360q-12 -2 -33.5 -3t-36.5 -1q-12 0 -33.5 1t-31.5 3z" />
<glyph unicode="o" horiz-adv-x="1140" d="M199 373q0 106 33.5 228t104.5 226.5t180.5 173t258.5 68.5q174 0 269.5 -101.5t95.5 -295.5q0 -106 -34 -228t-104.5 -226.5t-180 -173.5t-259.5 -69q-174 0 -269 101.5t-95 296.5zM342 375q0 -135 62.5 -208t173.5 -73t189.5 55.5t129.5 139.5t75.5 186.5t24.5 194.5 q0 135 -62.5 207.5t-172.5 72.5q-111 0 -189.5 -55t-130 -139t-76 -186.5t-24.5 -194.5z" />
<glyph unicode="p" horiz-adv-x="1142" d="M92 -483l195 1093q23 117 37 198t14 155q0 29 -1 46t-5 40q12 2 33.5 3t35.5 1q12 0 34 -1t32 -3q4 -16 5 -33t1 -45q0 -55 -8 -97q59 82 141 138.5t209 56.5q137 0 224 -99.5t87 -275.5q0 -158 -49 -290t-139 -227t-218 -148.5t-286 -53.5q-29 0 -60.5 3.5l-64.5 7.5 l-80 -469q-10 -2 -33.5 -3t-33.5 -1q-14 0 -36 1t-34 3zM334 109q29 -8 65.5 -12.5t69.5 -4.5q96 0 188.5 36t165 107.5t116.5 178t44 245.5q0 137 -60.5 212t-162.5 75q-55 0 -110.5 -23.5t-103.5 -79t-87 -145.5t-62 -221z" />
<glyph unicode="q" horiz-adv-x="1103" d="M188 322q0 139 44 273t130.5 239.5t214.5 170t295 64.5q63 0 135 -11t117 -26l-266 -1515q-10 -2 -33.5 -3t-33.5 -1q-14 0 -36 1t-34 3l135 749q-18 -43 -54 -93t-86 -94t-113.5 -74t-139.5 -30q-135 0 -205 91.5t-70 255.5zM332 344q0 -117 43 -183.5t125 -66.5 q76 0 144.5 49.5t123.5 131t95 188t63 221.5l47 252q-49 14 -142 14q-104 0 -195 -46t-158.5 -128t-106.5 -192.5t-39 -239.5z" />
<glyph unicode="r" horiz-adv-x="704" d="M180 0l107 610l36 198q15 81 15 155q0 29 -1 46t-5 40q12 2 33.5 3t35.5 1q12 0 34 -1t32 -3q4 -16 5 -33t1 -45q0 -29 -2 -53.5t-6 -47.5q31 37 64.5 69t73.5 56.5t87 39t107 14.5q14 0 32.5 -1t28.5 -6q0 -29 -6 -61.5t-27 -67.5q-4 2 -22.5 5.5t-34.5 3.5 q-55 0 -111.5 -21.5t-105.5 -70t-87 -126t-58 -188.5l-91 -516q-12 -2 -33.5 -3t-35.5 -1q-12 0 -34 1t-32 3z" />
<glyph unicode="s" horiz-adv-x="870" d="M98 27q10 70 41 120q20 -10 52 -19t68 -15.5t71 -10.5t65 -4q135 0 210 45t75 158q0 82 -44 119t-124 67l-63 25q-31 12 -67 29.5t-66.5 47t-51 73t-20.5 106.5q0 137 106.5 219t294.5 82q96 0 167 -21.5t99 -37.5q-10 -31 -22 -57.5t-29 -55.5q-29 14 -91 33.5 t-140 19.5q-242 0 -242 -168q0 -61 36 -97t128 -73l20 -8l86 -36q45 -19 83 -50t62.5 -75t24.5 -109q0 -96 -34.5 -164t-94 -111t-138.5 -63.5t-169 -20.5q-94 0 -173 16t-120 36z" />
<glyph unicode="t" horiz-adv-x="669" d="M205 930q0 29 3 56.5t15 57.5h170q10 53 17.5 114t7.5 138v23q33 10 71.5 16t61.5 6q2 -23 2 -39v-34q0 -39 -8 -101.5t-19 -122.5h271q0 -29 -3 -56t-16 -58h-268l-121 -680q-4 -14 -4 -28v-23q0 -68 37 -85.5t82 -17.5q68 0 127 21q4 -27 5 -54.5t-1 -62.5 q-78 -23 -176 -23q-96 0 -154.5 45.5t-58.5 149.5q0 31 6 72l123 686h-170z" />
<glyph unicode="u" horiz-adv-x="1136" d="M219 242q0 31 4 69.5t10 73.5l115 659q12 2 33.5 3.5t36.5 1.5q12 0 33.5 -1t31.5 -4l-108 -618q-6 -37 -10.5 -76t-4.5 -67q0 -98 47.5 -140.5t120.5 -42.5q74 0 140.5 48.5t122 129t95.5 186t60 220.5l64 360q12 2 33.5 3.5t35.5 1.5q12 0 34 -1t32 -4l-107 -610 l-36 -197q-15 -81 -15 -155q0 -29 1 -46.5t5 -39.5q-12 -2 -33.5 -3t-35.5 -1q-12 0 -34 1t-32 3q-6 33 -6 84q0 53 8 102t19 86q-18 -43 -55.5 -93t-88.5 -95t-115.5 -75t-140.5 -30q-123 0 -191.5 68t-68.5 199z" />
<glyph unicode="v" horiz-adv-x="976" d="M217 1044q37 6 72 7q23 0 38 -1t33 -6l150 -892l385 741q23 41 32 84t9 59v8q37 6 72 7q43 0 79 -7v-8q0 -33 -10 -65.5t-43 -91.5l-485 -879q-35 -6 -68 -6q-16 0 -36.5 1t-34.5 5z" />
<glyph unicode="w" horiz-adv-x="1499" d="M238 1044q37 6 69 7q41 0 78 -7l119 -876l346 876q14 4 33.5 5.5t34.5 1.5q33 0 61 -7l133 -876l301 741q18 45 24.5 78t6.5 49v8q18 4 32.5 5.5t32.5 1.5q43 0 80 -7v-8q0 -29 -12 -62.5t-39 -92.5l-383 -881q-35 -6 -72 -6q-16 0 -35.5 1t-33.5 5l-135 817l-328 -817 q-35 -6 -74 -6q-16 0 -35.5 1t-33.5 5z" />
<glyph unicode="x" horiz-adv-x="935" d="M76 0v8q2 41 16 79t58 93l292 369l-170 495q39 6 72 7q20 0 34.5 -1t35.5 -6l166 -499l-301 -398q-29 -39 -45.5 -71.5t-18.5 -67.5v-8q-37 -6 -74 -6q-23 0 -35 1t-30 5zM596 547l244 338q31 43 47 85t16 66v8q18 4 33.5 5.5t34.5 1.5q23 0 36 -1t31 -6v-8 q-2 -90 -77 -194l-222 -287l193 -555q-43 -6 -80 -6q-35 0 -66 6z" />
<glyph unicode="y" horiz-adv-x="960" d="M39 -487q0 35 9 65.5t26 48.5q20 -6 45.5 -10t54.5 -4q31 0 58.5 9t57 39t61.5 84t73 144l47 107q-23 0 -46.5 1t-33.5 3l-170 1044q18 4 32.5 5.5t33.5 1.5q43 0 80 -7l143 -964l367 813q20 43 30.5 85t10.5 58v8q37 6 69 7q39 0 76 -7v-8q0 -33 -10.5 -65.5 t-38.5 -91.5l-508 -1098q-41 -88 -81 -143.5t-82 -87t-85 -44t-92 -12.5q-66 1 -127 19z" />
<glyph unicode="z" horiz-adv-x="890" d="M86 33l696 897h-497q0 29 3 56.5t15 57.5h703l4 -26l-697 -903h527q0 -29 -3 -56.5t-16 -58.5h-733z" />
<glyph unicode="{" horiz-adv-x="770" d="M197 598q63 33 107 64.5t76 72.5t51.5 97.5t33.5 136.5l31 180q16 98 44.5 171t77 122t117 72.5t164.5 23.5q10 0 21.5 -1t21.5 -1q0 -27 -5 -59.5t-15 -55.5q-78 0 -127.5 -16t-80 -54t-49 -100.5t-34.5 -154.5l-17 -88q-18 -102 -37.5 -169t-46 -112t-64.5 -74.5 t-93 -56.5q59 -41 89 -87t30 -132q0 -39 -6.5 -86t-16.5 -111l-14 -84q-10 -53 -15.5 -95t-5.5 -77q0 -86 43 -119.5t154 -33.5q0 -23 -5 -55.5t-16 -59.5q-168 0 -242.5 63.5t-74.5 200.5q0 31 4 64.5t10 72.5l29 166q12 70 12 121q0 88 -36.5 144.5t-114.5 109.5z" />
<glyph unicode="|" horiz-adv-x="669" d="M213 -344l340 1933q16 2 35.5 3t38.5 1q18 0 36.5 -1t28.5 -3l-340 -1933q-12 -2 -30.5 -3t-36.5 -1q-23 0 -41.5 1t-30.5 3z" />
<glyph unicode="}" horiz-adv-x="770" d="M33 -346q0 27 5 59.5t15 55.5q78 0 127 16t80 54t49.5 100.5t34.5 154.5l16 88q18 102 38 169t46.5 112t64.5 73.5t93 57.5q-59 41 -89 87t-30 132q0 39 6.5 86t16.5 111l14 84q10 53 15.5 95t5.5 77q0 86 -43 119.5t-154 33.5q0 23 5 55.5t16 59.5q168 0 242.5 -63.5 t74.5 -200.5q0 -31 -4 -65t-10 -72l-29 -166q-12 -72 -12 -121q0 -88 36.5 -144.5t114.5 -109.5q-63 -33 -107 -64.5t-76 -72.5t-51.5 -97.5t-33.5 -136.5l-31 -180q-16 -98 -44.5 -171t-77 -122t-117 -72.5t-164.5 -23.5q-10 0 -21.5 1t-21.5 1z" />
<glyph unicode="~" horiz-adv-x="929" d="M186 815q23 25 56.5 46.5t70.5 39t75 26.5t73 9q47 0 88 -12.5t84 -28.5q41 -16 82 -28.5t84 -12.5q39 0 83 16.5t101 65.5q43 -51 49 -109q-59 -47 -118.5 -73.5t-135.5 -26.5q-45 0 -88 12.5t-84 28.5t-82 28.5t-80 12.5q-45 0 -96 -19.5t-106 -68.5q-23 18 -36.5 41.5 t-19.5 52.5z" />
<glyph unicode="&#xa1;" horiz-adv-x="550" d="M121 -410l192 1053q16 2 32.5 3t35.5 1q18 0 33.5 -1t29.5 -3l-178 -1053q-16 -2 -32.5 -3t-34.5 -1t-38 1t-40 3zM350 889q0 47 8 86q4 23 9.5 44l11.5 44q39 6 80 6q20 0 40.5 -1t37.5 -5q0 -47 -9 -86q-4 -23 -9 -44.5t-11 -43.5q-37 -6 -80 -6q-45 0 -78 6z" />
<glyph unicode="&#xa2;" d="M336 389q0 113 32.5 224.5t97 203.5t159 156.5t215.5 85.5l45 248q57 12 116 0l-43 -238q63 -2 117.5 -15.5t87.5 -23.5q-2 -29 -13 -63.5t-26 -55.5q-37 14 -89 26.5t-107 12.5q-115 0 -199 -51t-139 -130t-83 -175t-28 -188q0 -160 77 -236t224 -76q57 0 115.5 11.5 t108.5 27.5q10 -23 16 -54.5t6 -55.5q-27 -10 -61.5 -18.5t-70.5 -14.5t-69.5 -10.5t-56.5 -4.5l-37 -217q-31 -8 -59.5 -7t-57.5 7l39 226q-164 27 -240.5 132t-76.5 273z" />
<glyph unicode="&#xa3;" d="M225 20l56 48q104 90 163.5 214t59.5 277q0 20 -1 43t-3 47h-178q0 29 5 57.5t15 57.5h145q-4 45 -7 91t-3 89q0 106 27.5 202.5t88 169.5t154 116t222.5 43q117 0 196.5 -22.5t116.5 -39.5q-10 -37 -21.5 -60.5t-31.5 -58.5q-53 25 -122 41.5t-138 16.5q-98 0 -164 -32 t-107 -87t-58 -131t-17 -166q0 -37 4 -81l8 -91h430q0 -29 -5 -57.5t-16 -57.5h-397q0 -16 1 -30.5t1 -28.5q0 -117 -30.5 -234.5t-135.5 -226.5h621l-8 -66q-4 -33 -15 -63h-852z" />
<glyph unicode="&#xa4;" d="M211 301l166 164q-39 53 -60.5 118.5t-21.5 137.5q0 74 23.5 140.5t64.5 121.5l-172 172q16 35 42 57.5t52 32.5l170 -172q53 37 117.5 58.5t136.5 21.5t137.5 -21.5t118.5 -60.5l174 174q29 -16 52.5 -38.5t39.5 -47.5l-174 -176q41 -55 64.5 -121.5t23.5 -140.5 q0 -72 -22.5 -137.5t-63.5 -118.5l168 -168q-16 -29 -38.5 -52.5t-45.5 -39.5l-174 170q-53 -41 -119.5 -62.5t-140.5 -21.5t-140.5 21.5t-119.5 62.5l-168 -166q-35 16 -57.5 40.5t-32.5 51.5zM428 721q0 -66 22.5 -122t62.5 -98t95.5 -66.5t120.5 -24.5q66 0 121 24.5 t96 66.5t63.5 98t22.5 122t-22.5 123t-63.5 99t-96 66.5t-121 24.5t-121 -24.5t-95 -66.5t-62.5 -99t-22.5 -123z" />
<glyph unicode="&#xa5;" d="M197 354q-6 53 20 119h397l31 174h-397q-6 53 20 119h338l-268 707q12 2 34.5 3t43.5 1q18 0 41.5 -1t38.5 -3l239 -670l434 670q16 2 39 3t45 1q20 0 42 -1t34 -3l-471 -707h354q4 -29 -3 -59.5t-17 -59.5h-408l-30 -174h407q4 -29 -3 -59.5t-17 -59.5h-408l-61 -354 q-16 -2 -33.5 -3t-38.5 -1q-23 0 -41 1t-29 3l62 354h-395z" />
<glyph unicode="&#xa6;" horiz-adv-x="321" d="M31 -344l119 680q14 2 33.5 3t35.5 1q18 0 35.5 -1t32.5 -3l-119 -680q-14 -2 -31.5 -3t-36.5 -1q-20 0 -38.5 1t-30.5 3zM250 909l119 680q14 2 33.5 3t35.5 1q18 0 36 -1t32 -3l-119 -680q-14 -2 -31.5 -3t-36.5 -1q-20 0 -38.5 1t-30.5 3z" />
<glyph unicode="&#xa7;" horiz-adv-x="1079" d="M201 31q8 35 19 59.5t30 50.5q51 -20 135 -38.5t160 -18.5q45 0 98 7t99 28.5t78 58.5t32 98q0 33 -12.5 58.5t-34 45t-49 34t-58.5 24.5l-276 97q-78 29 -125 69.5t-47 122.5q0 84 44 151.5t103 127.5q-20 25 -34.5 58.5t-14.5 74.5q0 88 37 151.5t97.5 104.5t139 59.5 t164.5 18.5q92 0 179.5 -16.5t144.5 -41.5q-10 -35 -22.5 -58.5t-30.5 -49.5q-49 20 -125 37.5t-150 17.5q-49 0 -102 -8t-96 -29.5t-71 -57.5t-28 -89q0 -39 13.5 -66t37 -45t52.5 -31l59 -24l215 -80q35 -12 68 -29.5t57.5 -40t39.5 -53.5t15 -70q0 -76 -38.5 -143.5 t-92.5 -124.5q80 -68 80 -170q0 -86 -39 -147.5t-101.5 -101.5t-142 -59.5t-159.5 -19.5q-47 0 -97.5 5.5t-98.5 12.5t-87.5 17.5t-64.5 22.5zM387 762q0 -53 34 -76.5t93 -46.5l297 -113q35 35 63.5 80t28.5 99q0 51 -34.5 75.5t-92.5 46.5l-227 84q-16 6 -35.5 14.5 t-30.5 14.5q-35 -33 -65.5 -79t-30.5 -99z" />
<glyph unicode="&#xa8;" horiz-adv-x="1024" d="M449 1255q2 45 8 88t22 87q39 6 82 6t84 -6q-2 -45 -8 -88.5t-23 -86.5q-41 -6 -82 -6q-44 0 -83 6zM840 1255q2 45 8 88t22 87q39 6 82 6t84 -6q-2 -45 -8 -88.5t-22 -86.5q-41 -6 -82 -6q-45 0 -84 6z" />
<glyph unicode="&#xa9;" horiz-adv-x="1769" d="M242 735q0 162 55 302.5t154.5 241.5t239.5 159.5t310 58.5t310.5 -57.5t240 -159.5t154.5 -241.5t55 -303.5t-55 -303t-154.5 -240.5t-240 -160t-310.5 -58.5t-310 58.5t-239.5 160t-154.5 240.5t-55 303zM381 735q0 -133 43 -249.5t123 -203.5t194.5 -137.5 t259.5 -50.5t260 50.5t195 137.5t123 203.5t43 249.5t-43 250t-123 204t-194.5 137t-260.5 50q-145 0 -259.5 -50t-194.5 -137t-123 -204t-43 -250zM629 729q0 98 28.5 180t81 141.5t126 92.5t163.5 33q76 0 119 -8.5t84 -20.5q-4 -35 -9 -57.5t-20 -51.5q-43 12 -82 17.5 t-86 5.5q-139 0 -206.5 -90t-67.5 -242q0 -154 73.5 -235.5t206.5 -81.5q43 0 86 10t78 29q16 -29 24.5 -50.5t18.5 -52.5q-41 -20 -99 -34.5t-118 -14.5q-92 0 -167 30.5t-127 88t-79.5 136.5t-27.5 175z" />
<glyph unicode="&#xaa;" horiz-adv-x="1024" d="M293 870q0 111 36 217.5t104.5 191.5t171 136t237.5 51q53 0 112.5 -9t96.5 -25l-101 -564q-10 -53 -15 -94t-5 -82q0 -18 1 -35.5t3 -38.5q-14 -2 -35.5 -3t-32.5 -1q-10 0 -30.5 1t-30.5 3q-6 43 -6 87q0 12 2 38.5t10 59.5q-23 -37 -51.5 -74t-64.5 -66.5t-80 -47 t-95 -17.5q-111 0 -169 70.5t-58 201.5zM430 895q0 -88 28.5 -139t90.5 -51q57 0 108.5 37.5t93.5 100t73.5 144.5t47.5 170l37 195q-35 8 -98 8q-80 0 -149.5 -35t-121 -97.5t-81 -147.5t-29.5 -185z" />
<glyph unicode="&#xab;" horiz-adv-x="1099" d="M174 557l428 442q18 4 45 5.5t47 1.5q39 0 80 -7l-428 -450l270 -455q-41 -6 -77 -6q-41 0 -78 6zM614 557l428 442q18 4 45 5.5t47 1.5q39 0 80 -7l-428 -450l270 -455q-41 -6 -77 -6q-41 0 -78 6z" />
<glyph unicode="&#xac;" d="M287 674q0 16 1 38.5t3 32.5h839v-557q-10 -2 -30.5 -3t-36.5 -1t-39 1t-33 3v418h-700q-2 10 -3 31t-1 37z" />
<glyph unicode="&#xad;" horiz-adv-x="722" d="M195 514q4 72 24 139h520q0 -10 -3 -32.5t-7 -38.5t-7 -37t-7 -31h-520z" />
<glyph unicode="&#xae;" horiz-adv-x="1769" d="M242 735q0 162 55 302.5t154.5 241.5t239.5 159.5t310 58.5t310.5 -57.5t240 -159.5t154.5 -241.5t55 -303.5t-55 -303t-154.5 -240.5t-240 -160t-310.5 -58.5t-310 58.5t-239.5 160t-154.5 240.5t-55 303zM381 735q0 -133 43 -249.5t123 -203.5t194.5 -137.5 t259.5 -50.5t260 50.5t195 137.5t123 203.5t43 249.5t-43 250t-123 204t-194.5 137t-260.5 50q-145 0 -259.5 -50t-194.5 -137t-123 -204t-43 -250zM766 352v791q47 6 95 9t106 3q55 0 110.5 -11t101.5 -39t74.5 -74t28.5 -118q0 -47 -15.5 -83.5t-38 -65.5t-51 -49.5 t-55.5 -32.5l240 -328q-29 -4 -45 -4h-31h-33q-14 0 -28 2l-271 369l47 18q25 10 52.5 24.5t52 35t40 47t15.5 61.5q0 70 -54 105t-130 35q-45 0 -90 -7v-688q-10 -2 -24.5 -3t-37.5 -1t-36 1t-23 3z" />
<glyph unicode="&#xaf;" horiz-adv-x="1024" d="M410 1278q0 29 4 62.5t14 62.5h561q0 -29 -4 -63.5t-14 -61.5h-561z" />
<glyph unicode="&#xb0;" horiz-adv-x="745" d="M242 1196q0 61 23.5 114.5t63.5 92.5t93 61.5t113 22.5q59 0 112 -22.5t93 -61.5t63.5 -92.5t23.5 -114.5t-23.5 -114.5t-63.5 -92.5t-93 -61.5t-112 -22.5t-112.5 22.5t-93.5 61.5t-63.5 92.5t-23.5 114.5zM362 1196q0 -78 48.5 -129t124.5 -51t124 51t48 129t-48.5 129 t-123.5 51q-76 0 -124.5 -51t-48.5 -129z" />
<glyph unicode="&#xb1;" d="M295 653q0 25 3 58.5t15 70.5h357l67 381q14 2 31.5 3t36.5 1q14 0 33.5 -1t35.5 -3l-67 -381h350q0 -25 -3 -58.5t-15 -70.5h-355l-67 -381q-16 -4 -35 -4h-35h-35q-18 0 -32 4l67 381h-352zM215 2q0 68 22 140h873q0 -68 -23 -140h-872z" />
<glyph unicode="&#xb2;" horiz-adv-x="921" d="M219 643l336 307l66 62q31 29 54 59.5t36.5 65t13.5 75.5q0 125 -133 125q-47 0 -103.5 -15t-91.5 -32q-10 25 -18 50.5t-10 52.5q59 25 117.5 40t134.5 15q106 0 173.5 -56.5t67.5 -162.5q0 -55 -17.5 -101.5t-47 -87.5t-70.5 -81l-88 -82l-152 -136h344q2 -31 -4 -58.5 t-16 -53.5h-588z" />
<glyph unicode="&#xb3;" horiz-adv-x="921" d="M244 647q4 25 13 50.5t30 54.5q47 -16 98 -26.5t96 -10.5q41 0 80 8t68.5 29.5t48 56.5t18.5 90q0 66 -41 103.5t-118 37.5q-20 0 -43 -1t-39 -3l-6 13l245 292h-309q0 51 18 107h486l6 -21l-254 -303q51 -6 88 -26.5t59.5 -49t34 -62.5t11.5 -64q0 -78 -29 -137.5 t-76 -99.5t-109.5 -60.5t-132.5 -20.5q-78 0 -141 13.5t-102 29.5z" />
<glyph unicode="&#xb4;" horiz-adv-x="1024" d="M569 1214l193 267q23 4 46 4h46q25 0 49.5 -1t46.5 -3l-229 -267q-37 -6 -82 -6q-33 0 -70 6z" />
<glyph unicode="&#xb5;" horiz-adv-x="1183" d="M78 -483l254 1527q12 2 34.5 3.5t34.5 1.5t34 -1t34 -4l-92 -548q-12 -80 -12 -148q0 -121 49 -186.5t170 -65.5q45 0 101 20.5t108.5 62.5t94.5 105.5t56 151.5l100 608q12 2 35 3.5t33 1.5q14 0 35.5 -1t34.5 -4l-174 -1044q-12 -2 -32 -3t-32 -1h-32q-19 0 -29 4 q0 29 3 64.5t7 66.5q-53 -61 -132 -108.5t-196 -47.5q-86 0 -155.5 37t-98.5 97l-96 -592q-12 -2 -34.5 -3t-35.5 -1q-12 0 -34.5 1t-32.5 3z" />
<glyph unicode="&#xb6;" horiz-adv-x="1114" d="M215 1016q0 236 146.5 353.5t426.5 117.5h49q26 0 50 -2l-260 -1497q-33 0 -69 3t-60 9l114 641q-80 6 -152.5 30.5t-126.5 69.5t-86 114t-32 161zM799 -12l260 1497q45 0 73.5 -3t53.5 -9l-258 -1473q-29 -6 -56.5 -9t-72.5 -3z" />
<glyph unicode="&#xb7;" horiz-adv-x="419" d="M205 479q0 47 8 86q4 23 9 44.5t11 43.5q43 6 88 6t86 -6q0 -47 -8 -86q-4 -23 -9 -44t-11 -44q-53 -6 -88 -6q-23 0 -45.5 1t-40.5 5z" />
<glyph unicode="&#xb8;" horiz-adv-x="1024" d="M272 -455q4 23 13.5 52.5t23.5 48.5q25 -10 64 -20.5t69 -10.5q23 0 47.5 2t45 11.5t34 27.5t13.5 51q0 41 -33 60.5t-92 19.5q-27 0 -53 -4l-50 -8l-6 8l137 262h111l-92 -170q10 2 35 2q86 0 130 -47t44 -109q0 -61 -22.5 -102t-59.5 -65.5t-84 -36t-98 -11.5 q-63 0 -108.5 13.5t-68.5 25.5z" />
<glyph unicode="&#xb9;" horiz-adv-x="921" d="M285 629q0 29 4 55.5t18 54.5h199l94 545l-223 -90q-16 20 -22.5 48t-8.5 52l389 162h31l-125 -717h199q-4 -55 -21 -110h-534z" />
<glyph unicode="&#xba;" horiz-adv-x="1024" d="M287 918q0 84 25.5 180t82 179t144.5 138t215 55q143 0 220 -81.5t77 -237.5q0 -84 -26 -180.5t-81 -179t-143 -138t-211 -55.5q-143 0 -223 82t-80 238zM424 920q0 -109 46 -162t126 -53q84 0 144.5 41.5t99.5 107.5t57 144.5t18 150.5q0 104 -47 159.5t-127 55.5 q-84 0 -144 -42t-98 -107.5t-56.5 -144t-18.5 -150.5z" />
<glyph unicode="&#xbb;" horiz-adv-x="1161" d="M111 94l432 457l-275 448q39 6 78 7q41 0 78 -7l287 -462l-435 -443q-18 -4 -41.5 -5t-44.5 -1q-40 0 -79 6zM551 94l432 457l-275 448q39 6 78 7q41 0 78 -7l287 -462l-435 -443q-18 -4 -41.5 -5t-44.5 -1q-40 0 -79 6z" />
<glyph unicode="&#xbc;" horiz-adv-x="2150" d="M285 629q0 29 4 55.5t18 54.5h199l94 545l-223 -90q-16 20 -22.5 48t-8.5 52l389 162h31l-125 -717h199q-4 -55 -21 -110h-534zM486 0l1243 1448q16 2 44 3t44 1q20 0 39.5 -1t40.5 -3l-1241 -1448q-23 -4 -41 -4h-37h-47q-29 0 -45 4zM1259 186l441 664 q33 -6 60.5 -16.5t47.5 -20.5l-344 -529h234l32 176q31 6 62 7q18 0 29.5 -1t27.5 -6l-30 -176h100q4 -25 -2 -58.5t-19 -55.5h-100l-31 -172h-49q-14 0 -30.5 1t-36.5 3l28 168h-411z" />
<glyph unicode="&#xbd;" horiz-adv-x="2150" d="M285 629q0 29 4 55.5t18 54.5h199l94 545l-223 -90q-16 20 -22.5 48t-8.5 52l389 162h31l-125 -717h199q-4 -55 -21 -110h-534zM469 0l1243 1448q16 2 44 3t44 1q20 0 39.5 -1t40.5 -3l-1241 -1448q-23 -4 -41 -4h-37h-47q-29 0 -45 4zM1302 16l336 307l66 62 q31 29 54 59.5t36.5 65t13.5 75.5q0 125 -133 125q-47 0 -103.5 -15t-91.5 -32q-10 25 -18 50.5t-10 52.5q59 25 117.5 40t134.5 15q106 0 173.5 -56.5t67.5 -162.5q0 -55 -17.5 -101.5t-47 -87.5t-70.5 -81l-88 -82l-152 -136h344q2 -31 -4 -58.5t-16 -53.5h-588z" />
<glyph unicode="&#xbe;" horiz-adv-x="2150" d="M273 647q4 25 13 50.5t30 54.5q47 -16 98 -26.5t96 -10.5q41 0 80 8t68.5 29.5t48 56.5t18.5 90q0 66 -41 103.5t-118 37.5q-20 0 -43 -1t-39 -3l-6 13l245 292h-309q0 51 18 107h486l6 -21l-254 -303q51 -6 88 -26.5t59.5 -49t34 -62.5t11.5 -64q0 -78 -29 -137.5 t-76 -99.5t-109.5 -60.5t-132.5 -20.5q-78 0 -141 13.5t-102 29.5zM469 0l1243 1448q16 2 44 3t44 1q20 0 39.5 -1t40.5 -3l-1241 -1448q-23 -4 -41 -4h-37h-47q-29 0 -45 4zM1245 186l441 664q33 -6 60.5 -16.5t47.5 -20.5l-344 -529h234l32 176q31 6 62 7q18 0 29.5 -1 t27.5 -6l-30 -176h100q4 -25 -2 -58.5t-19 -55.5h-100l-31 -172h-49q-14 0 -30.5 1t-36.5 3l28 168h-411z" />
<glyph unicode="&#xbf;" horiz-adv-x="944" d="M195 -70q0 94 37.5 173t99 141.5t139.5 106.5t160 67l39 229h139l-55 -317l-72 -23q-68 -23 -128 -55.5t-104 -77.5t-70 -101.5t-26 -125.5q0 -113 76 -171.5t205 -58.5q90 0 149.5 14.5t118.5 35.5q6 -20 7 -47t5 -58l3 -22q-92 -29 -164 -40.5t-160 -11.5 q-100 0 -175 29t-125 76t-74.5 108t-24.5 129zM692 889q4 47 11.5 90t23.5 84q39 6 84 6t86 -6q-2 -47 -8 -91t-23 -83q-41 -6 -86 -6q-23 0 -45.5 1t-42.5 5z" />
<glyph unicode="&#xc0;" horiz-adv-x="1173" d="M88 0l657 1473q16 2 48 3t51 1q23 0 46 -1t34 -3l217 -1473q-10 -2 -33 -3t-45 -1q-18 0 -40 1t-36 3l-51 385h-528l-166 -385q-16 -2 -36 -3t-42 -1q-20 0 -42 1t-34 3zM463 516h455l-107 803zM555 1821q49 6 102 6q51 0 94 -6l189 -228q-20 -4 -37 -5t-37 -1 q-53 0 -86 6z" />
<glyph unicode="&#xc1;" horiz-adv-x="1173" d="M88 0l657 1473q16 2 48 3t51 1q23 0 46 -1t34 -3l217 -1473q-10 -2 -33 -3t-45 -1q-18 0 -40 1t-36 3l-51 385h-528l-166 -385q-16 -2 -36 -3t-42 -1q-20 0 -42 1t-34 3zM463 516h455l-107 803zM705 1593l266 228q49 6 98 6q27 0 55.5 -1t51.5 -5l-303 -228 q-41 -6 -99 -6q-36 0 -69 6z" />
<glyph unicode="&#xc2;" horiz-adv-x="1173" d="M88 0l657 1473q16 2 48 3t51 1q23 0 46 -1t34 -3l217 -1473q-10 -2 -33 -3t-45 -1q-18 0 -40 1t-36 3l-51 385h-528l-166 -385q-16 -2 -36 -3t-42 -1q-20 0 -42 1t-34 3zM463 516h455l-107 803zM520 1593l273 228q18 4 41.5 5t42.5 1q39 0 75 -6l177 -228q-37 -6 -76 -6 q-31 0 -74 6l-113 140l-172 -142q-25 -4 -49 -4h-41q-16 0 -42 1t-42 5z" />
<glyph unicode="&#xc3;" horiz-adv-x="1173" d="M88 0l657 1473q16 2 48 3t51 1q23 0 46 -1t34 -3l217 -1473q-10 -2 -33 -3t-45 -1q-18 0 -40 1t-36 3l-51 385h-528l-166 -385q-16 -2 -36 -3t-42 -1q-20 0 -42 1t-34 3zM463 516h455l-107 803zM516 1735q35 35 81 63.5t106 28.5q45 0 81 -11.5t68.5 -25.5t66.5 -25.5 t75 -11.5q35 0 59.5 11.5t62.5 43.5l27 -39q16 -25 21 -47q-35 -33 -82 -61.5t-107 -28.5q-45 0 -80 11.5t-67.5 25.5t-65.5 25.5t-71 11.5q-37 0 -64 -14.5t-61 -40.5q-16 16 -30 38.5t-20 45.5z" />
<glyph unicode="&#xc4;" horiz-adv-x="1173" d="M88 0l657 1473q16 2 48 3t51 1q23 0 46 -1t34 -3l217 -1473q-10 -2 -33 -3t-45 -1q-18 0 -40 1t-36 3l-51 385h-528l-166 -385q-16 -2 -36 -3t-42 -1q-20 0 -42 1t-34 3zM463 516h455l-107 803zM536 1593q0 47 8.5 94.5t22.5 88.5q49 6 90 6q51 0 88 -6q0 -96 -30 -183 q-43 -6 -90 -6q-46 0 -89 6zM964 1593q0 47 9.5 93.5t21.5 89.5q43 6 90 6q45 0 88 -6q0 -47 -8 -94.5t-22 -88.5q-49 -6 -90 -6q-52 0 -89 6z" />
<glyph unicode="&#xc5;" horiz-adv-x="1173" d="M88 0l655 1468q-57 23 -86.5 73t-29.5 116q0 55 20.5 102t55 83t84 55.5t106.5 19.5q102 0 155.5 -60.5t53.5 -146.5q0 -84 -48 -149.5t-130 -92.5l217 -1468q-10 -2 -33 -3t-45 -1q-18 0 -40 1t-36 3l-51 385h-528l-166 -385q-16 -2 -36 -3t-42 -1q-20 0 -42 1t-34 3z M463 516h455l-107 803zM739 1671q0 -53 27 -88t84 -35q63 0 100 45t37 107q0 53 -25.5 88t-82.5 35q-66 0 -103 -43t-37 -109z" />
<glyph unicode="&#xc6;" horiz-adv-x="1738" d="M0 0l1044 1473h859q0 -10 -1 -30t-6 -36l-16 -64h-614l-88 -497h493q0 -12 -1 -29.5t-5 -34.5q-4 -14 -8 -33.5t-8 -31.5h-494l-102 -588h630q-2 -12 -3 -29.5t-5 -33.5q-2 -14 -6 -34t-8 -32h-774l65 377h-520l-268 -377q-43 -6 -86 -6q-41 0 -78 6zM526 506h449 l149 848h-10z" />
<glyph unicode="&#xc7;" horiz-adv-x="1187" d="M248 549q0 174 46 344t142 304t243.5 217t352.5 83q117 0 196 -18.5t113 -30.5q-8 -37 -17 -61.5t-30 -59.5q-51 18 -111.5 30.5t-154.5 12.5q-164 0 -282.5 -67.5t-195.5 -180t-114 -259t-37 -304.5q0 -223 106.5 -340t305.5 -117q90 0 169 18.5t138 49.5 q31 -47 37 -117q-68 -35 -162 -54t-192 -24l-58 -100q10 2 18 2h19q90 0 135.5 -47t45.5 -109q0 -61 -23 -102t-61.5 -65.5t-88 -36t-102.5 -11.5q-66 0 -114 13.5t-72 25.5q4 23 14 52.5t25 48.5q27 -10 67.5 -20.5t73.5 -10.5q25 0 50.5 2t47 11.5t34.5 27.5t13 51 q0 41 -34.5 60.5t-96.5 19.5q-29 0 -55 -4l-51 -8l-8 8l108 199q-207 25 -323.5 169t-116.5 398z" />
<glyph unicode="&#xc8;" horiz-adv-x="1062" d="M211 0l258 1473h758q0 -66 -23 -130h-614l-88 -497h493q0 -31 -5 -64.5t-17 -64.5h-494l-102 -588h633q-2 -39 -7.5 -67.5t-17.5 -61.5h-774zM613 1821q49 6 102 6q51 0 94 -6l189 -228q-20 -4 -37 -5t-37 -1q-53 0 -86 6z" />
<glyph unicode="&#xc9;" horiz-adv-x="1062" d="M211 0l258 1473h758q0 -66 -23 -130h-614l-88 -497h493q0 -31 -5 -64.5t-17 -64.5h-494l-102 -588h633q-2 -39 -7.5 -67.5t-17.5 -61.5h-774zM752 1593l266 228q49 6 98 6q27 0 55.5 -1t51.5 -5l-303 -228q-41 -6 -99 -6q-36 0 -69 6z" />
<glyph unicode="&#xca;" horiz-adv-x="1062" d="M211 0l258 1473h758q0 -66 -23 -130h-614l-88 -497h493q0 -31 -5 -64.5t-17 -64.5h-494l-102 -588h633q-2 -39 -7.5 -67.5t-17.5 -61.5h-774zM540 1593l273 228q18 4 41.5 5t42.5 1q39 0 75 -6l177 -228q-37 -6 -76 -6q-31 0 -74 6l-113 140l-172 -142q-25 -4 -49 -4h-41 q-16 0 -42 1t-42 5z" />
<glyph unicode="&#xcb;" horiz-adv-x="1062" d="M211 0l258 1473h758q0 -66 -23 -130h-614l-88 -497h493q0 -31 -5 -64.5t-17 -64.5h-494l-102 -588h633q-2 -39 -7.5 -67.5t-17.5 -61.5h-774zM561 1593q0 47 8.5 94.5t22.5 88.5q49 6 90 6q51 0 88 -6q0 -96 -30 -183q-43 -6 -90 -6q-46 0 -89 6zM989 1593q0 47 9.5 93.5 t21.5 89.5q43 6 90 6q45 0 88 -6q0 -47 -8 -94.5t-22 -88.5q-49 -6 -90 -6q-52 0 -89 6z" />
<glyph unicode="&#xcc;" horiz-adv-x="565" d="M213 0l258 1473q14 2 34.5 3t37.5 1q23 0 39 -1t30 -3l-258 -1473q-16 -2 -33.5 -3t-39.5 -1q-20 0 -39 1t-29 3zM283 1821q49 6 102 6q51 0 94 -6l189 -228q-20 -4 -37 -5t-37 -1q-53 0 -86 6z" />
<glyph unicode="&#xcd;" horiz-adv-x="565" d="M213 0l258 1473q14 2 34.5 3t37.5 1q23 0 39 -1t30 -3l-258 -1473q-16 -2 -33.5 -3t-39.5 -1q-20 0 -39 1t-29 3zM387 1593l266 228q49 6 98 6q27 0 55.5 -1t51.5 -5l-303 -228q-41 -6 -99 -6q-36 0 -69 6z" />
<glyph unicode="&#xce;" horiz-adv-x="565" d="M213 0l258 1473q14 2 34.5 3t37.5 1q23 0 39 -1t30 -3l-258 -1473q-16 -2 -33.5 -3t-39.5 -1q-20 0 -39 1t-29 3zM241 1593l273 228q18 4 41.5 5t42.5 1q39 0 75 -6l177 -228q-37 -6 -76 -6q-31 0 -74 6l-113 140l-172 -142q-25 -4 -49 -4h-41q-16 0 -42 1t-42 5z" />
<glyph unicode="&#xcf;" horiz-adv-x="565" d="M213 0l258 1473q14 2 34.5 3t37.5 1q23 0 39 -1t30 -3l-258 -1473q-16 -2 -33.5 -3t-39.5 -1q-20 0 -39 1t-29 3zM239 1593q0 47 8.5 94.5t22.5 88.5q49 6 90 6q51 0 88 -6q0 -96 -30 -183q-43 -6 -90 -6q-46 0 -89 6zM667 1593q0 47 9.5 93.5t21.5 89.5q43 6 90 6 q45 0 88 -6q0 -47 -8 -94.5t-22 -88.5q-49 -6 -90 -6q-52 0 -89 6z" />
<glyph unicode="&#xd0;" horiz-adv-x="1421" d="M207 723q0 57 18 113h160l113 637q29 4 68.5 8t81.5 7t81 5t66 2q184 0 307 -45t197.5 -126t105.5 -191.5t31 -239.5q0 -172 -48.5 -337t-149.5 -294t-259 -208t-379 -79q-51 0 -105.5 2.5t-102.5 5.5t-88 8t-64 9l127 723h-160zM403 123q14 -2 41 -4t57.5 -4t62.5 -3 t57 -1q162 0 286.5 57t208.5 158.5t128 240t44 297.5q0 119 -22.5 212t-77.5 157.5t-150.5 99.5t-238.5 35q-39 0 -91.5 -4t-86.5 -10l-93 -518h412q0 -29 -4 -57.5t-14 -55.5h-414z" />
<glyph unicode="&#xd1;" horiz-adv-x="1376" d="M211 0l258 1473q14 2 38.5 3t41.5 1q18 0 36.5 -1t30.5 -3l455 -1240l215 1240q12 2 31.5 3t38.5 1q16 0 35.5 -1t31.5 -3l-256 -1473q-12 -2 -34.5 -3t-42.5 -1q-16 0 -38 1t-34 3l-455 1233l-213 -1233q-16 -2 -32.5 -3t-38.5 -1q-23 0 -40.5 1t-27.5 3zM647 1735 q35 35 81 63.5t106 28.5q45 0 81 -11.5t68.5 -25.5t66.5 -25.5t75 -11.5q35 0 59.5 11.5t62.5 43.5l27 -39q16 -25 21 -47q-35 -33 -82 -61.5t-107 -28.5q-45 0 -80 11.5t-67.5 25.5t-65.5 25.5t-71 11.5q-37 0 -64 -14.5t-61 -40.5q-16 16 -30 38.5t-20 45.5z" />
<glyph unicode="&#xd2;" horiz-adv-x="1441" d="M248 510q0 203 53 383t149.5 314t231.5 212t301 78q119 0 207 -42t146.5 -114.5t87 -170t28.5 -207.5q0 -209 -53 -390.5t-150.5 -313.5t-233.5 -208t-300 -76q-117 0 -204 40t-145.5 112t-88 170t-29.5 213zM395 524q0 -193 82 -306.5t260 -113.5q121 0 224.5 67 t180.5 180.5t120 267t43 329.5q0 92 -19.5 169t-61.5 132.5t-106.5 87t-156.5 31.5q-125 0 -229.5 -65.5t-179.5 -179t-116 -267.5t-41 -332zM785 1821q49 6 102 6q51 0 94 -6l189 -228q-20 -4 -37 -5t-37 -1q-53 0 -86 6z" />
<glyph unicode="&#xd3;" horiz-adv-x="1441" d="M248 510q0 203 53 383t149.5 314t231.5 212t301 78q119 0 207 -42t146.5 -114.5t87 -170t28.5 -207.5q0 -209 -53 -390.5t-150.5 -313.5t-233.5 -208t-300 -76q-117 0 -204 40t-145.5 112t-88 170t-29.5 213zM395 524q0 -193 82 -306.5t260 -113.5q121 0 224.5 67 t180.5 180.5t120 267t43 329.5q0 92 -19.5 169t-61.5 132.5t-106.5 87t-156.5 31.5q-125 0 -229.5 -65.5t-179.5 -179t-116 -267.5t-41 -332zM830 1593l266 228q49 6 98 6q27 0 55.5 -1t51.5 -5l-303 -228q-41 -6 -99 -6q-36 0 -69 6z" />
<glyph unicode="&#xd4;" horiz-adv-x="1441" d="M248 510q0 203 53 383t149.5 314t231.5 212t301 78q119 0 207 -42t146.5 -114.5t87 -170t28.5 -207.5q0 -209 -53 -390.5t-150.5 -313.5t-233.5 -208t-300 -76q-117 0 -204 40t-145.5 112t-88 170t-29.5 213zM395 524q0 -193 82 -306.5t260 -113.5q121 0 224.5 67 t180.5 180.5t120 267t43 329.5q0 92 -19.5 169t-61.5 132.5t-106.5 87t-156.5 31.5q-125 0 -229.5 -65.5t-179.5 -179t-116 -267.5t-41 -332zM661 1593l273 228q18 4 41.5 5t42.5 1q39 0 75 -6l177 -228q-37 -6 -76 -6q-31 0 -74 6l-113 140l-172 -142q-25 -4 -49 -4h-41 q-16 0 -42 1t-42 5z" />
<glyph unicode="&#xd5;" horiz-adv-x="1441" d="M248 510q0 203 53 383t149.5 314t231.5 212t301 78q119 0 207 -42t146.5 -114.5t87 -170t28.5 -207.5q0 -209 -53 -390.5t-150.5 -313.5t-233.5 -208t-300 -76q-117 0 -204 40t-145.5 112t-88 170t-29.5 213zM395 524q0 -193 82 -306.5t260 -113.5q121 0 224.5 67 t180.5 180.5t120 267t43 329.5q0 92 -19.5 169t-61.5 132.5t-106.5 87t-156.5 31.5q-125 0 -229.5 -65.5t-179.5 -179t-116 -267.5t-41 -332zM696 1735q35 35 81 63.5t106 28.5q45 0 81 -11.5t68.5 -25.5t66.5 -25.5t75 -11.5q35 0 59.5 11.5t62.5 43.5l27 -39 q16 -25 21 -47q-35 -33 -82 -61.5t-107 -28.5q-45 0 -80 11.5t-67.5 25.5t-65.5 25.5t-71 11.5q-37 0 -64 -14.5t-61 -40.5q-16 16 -30 38.5t-20 45.5z" />
<glyph unicode="&#xd6;" horiz-adv-x="1441" d="M248 510q0 203 53 383t149.5 314t231.5 212t301 78q119 0 207 -42t146.5 -114.5t87 -170t28.5 -207.5q0 -209 -53 -390.5t-150.5 -313.5t-233.5 -208t-300 -76q-117 0 -204 40t-145.5 112t-88 170t-29.5 213zM395 524q0 -193 82 -306.5t260 -113.5q121 0 224.5 67 t180.5 180.5t120 267t43 329.5q0 92 -19.5 169t-61.5 132.5t-106.5 87t-156.5 31.5q-125 0 -229.5 -65.5t-179.5 -179t-116 -267.5t-41 -332zM692 1593q0 47 8.5 94.5t22.5 88.5q49 6 90 6q51 0 88 -6q0 -96 -30 -183q-43 -6 -90 -6q-46 0 -89 6zM1120 1593q0 47 9.5 93.5 t21.5 89.5q43 6 90 6q45 0 88 -6q0 -47 -8 -94.5t-22 -88.5q-49 -6 -90 -6q-52 0 -89 6z" />
<glyph unicode="&#xd7;" d="M305 483l311 265l-210 256q47 49 110 94l211 -256l309 262q23 -23 47.5 -52.5t40.5 -56.5l-307 -262l211 -256q-49 -55 -110 -94l-213 256l-312 -264q-23 20 -47.5 49.5t-40.5 58.5z" />
<glyph unicode="&#xd8;" horiz-adv-x="1441" d="M184 -29l152 195q-88 137 -88 344q0 203 53 383t149.5 314t231.5 212t301 78q98 0 173 -28.5t132 -79.5l76 98q37 6 78 6q39 0 74 -6l-150 -191q43 -70 64.5 -154.5t21.5 -178.5q0 -209 -53 -390.5t-150.5 -313.5t-233.5 -208t-300 -76q-94 0 -169 27t-130 74l-82 -105 q-37 -6 -76 -6q-41 0 -74 6zM395 524q0 -139 39 -231l766 983q-41 43 -100.5 67.5t-138.5 24.5q-125 0 -229.5 -65.5t-179.5 -179t-116 -267.5t-41 -332zM502 188q84 -84 235 -84q121 0 224.5 67t180.5 180.5t120 267t43 329.5q0 125 -37 221z" />
<glyph unicode="&#xd9;" horiz-adv-x="1351" d="M270 369q0 45 6.5 94t16.5 102l160 908q14 2 35.5 3t39.5 1q20 0 37 -1t31 -3l-156 -889q-10 -61 -16 -116.5t-6 -100.5q0 -141 63.5 -198.5t212.5 -57.5q100 0 171 31.5t120 92t80 148.5t51 201l156 889q14 2 32.5 3t41.5 1q16 0 35.5 -1t33.5 -3l-164 -930 q-25 -137 -68.5 -242.5t-113.5 -178.5t-168 -110t-231 -37q-400 1 -400 394zM697 1821q49 6 102 6q51 0 94 -6l189 -228q-20 -4 -37 -5t-37 -1q-53 0 -86 6z" />
<glyph unicode="&#xda;" horiz-adv-x="1351" d="M270 369q0 45 6.5 94t16.5 102l160 908q14 2 35.5 3t39.5 1q20 0 37 -1t31 -3l-156 -889q-10 -61 -16 -116.5t-6 -100.5q0 -141 63.5 -198.5t212.5 -57.5q100 0 171 31.5t120 92t80 148.5t51 201l156 889q14 2 32.5 3t41.5 1q16 0 35.5 -1t33.5 -3l-164 -930 q-25 -137 -68.5 -242.5t-113.5 -178.5t-168 -110t-231 -37q-400 1 -400 394zM793 1593l266 228q49 6 98 6q27 0 55.5 -1t51.5 -5l-303 -228q-41 -6 -99 -6q-36 0 -69 6z" />
<glyph unicode="&#xdb;" horiz-adv-x="1351" d="M270 369q0 45 6.5 94t16.5 102l160 908q14 2 35.5 3t39.5 1q20 0 37 -1t31 -3l-156 -889q-10 -61 -16 -116.5t-6 -100.5q0 -141 63.5 -198.5t212.5 -57.5q100 0 171 31.5t120 92t80 148.5t51 201l156 889q14 2 32.5 3t41.5 1q16 0 35.5 -1t33.5 -3l-164 -930 q-25 -137 -68.5 -242.5t-113.5 -178.5t-168 -110t-231 -37q-400 1 -400 394zM633 1593l273 228q18 4 41.5 5t42.5 1q39 0 75 -6l177 -228q-37 -6 -76 -6q-31 0 -74 6l-113 140l-172 -142q-25 -4 -49 -4h-41q-16 0 -42 1t-42 5z" />
<glyph unicode="&#xdc;" horiz-adv-x="1351" d="M270 369q0 45 6.5 94t16.5 102l160 908q14 2 35.5 3t39.5 1q20 0 37 -1t31 -3l-156 -889q-10 -61 -16 -116.5t-6 -100.5q0 -141 63.5 -198.5t212.5 -57.5q100 0 171 31.5t120 92t80 148.5t51 201l156 889q14 2 32.5 3t41.5 1q16 0 35.5 -1t33.5 -3l-164 -930 q-25 -137 -68.5 -242.5t-113.5 -178.5t-168 -110t-231 -37q-400 1 -400 394zM653 1593q0 47 8.5 94.5t22.5 88.5q49 6 90 6q51 0 88 -6q0 -96 -30 -183q-43 -6 -90 -6q-46 0 -89 6zM1081 1593q0 47 9.5 93.5t21.5 89.5q43 6 90 6q45 0 88 -6q0 -47 -8 -94.5t-22 -88.5 q-49 -6 -90 -6q-52 0 -89 6z" />
<glyph unicode="&#xdd;" horiz-adv-x="1103" d="M297 1473q12 2 34.5 3t43.5 1q18 0 40.5 -1t37.5 -3l225 -775l455 775q16 2 36.5 3t42.5 1q20 0 42 -1t34 -3l-565 -936l-92 -537q-16 -2 -33.5 -3t-38.5 -1q-23 0 -41 1t-29 3l97 545zM680 1593l266 228q49 6 98 6q27 0 55.5 -1t51.5 -5l-303 -228q-41 -6 -99 -6 q-36 0 -69 6z" />
<glyph unicode="&#xde;" horiz-adv-x="1153" d="M213 0l256 1473q14 2 33.5 3t38.5 1q20 0 38.5 -1t30.5 -3l-39 -238q45 4 80 6t82 2q96 0 177 -23.5t139.5 -70.5t91.5 -119t33 -168q0 -139 -46.5 -240.5t-126 -168t-189.5 -98t-239 -31.5q-47 0 -80.5 2t-78.5 6l-60 -332q-14 -2 -33.5 -3t-37.5 -1q-20 0 -39 1t-31 3z M434 459q20 -2 36 -3l31 -2q15 -1 34.5 -2t50.5 -1q217 0 326.5 102t109.5 303q0 80 -25.5 130t-69.5 79t-102.5 40t-124.5 11q-29 0 -48 -1t-34.5 -2t-32 -3t-38.5 -4z" />
<glyph unicode="&#xdf;" horiz-adv-x="1142" d="M-233 -477q10 41 19 63l21 52q20 -8 45 -13.5t58 -5.5q49 0 89 10.5t69.5 39t51 82.5t36.5 140l202 1188q20 117 52 200t84.5 137t127 79t179.5 25q156 0 241.5 -74t85.5 -203q0 -68 -20.5 -121t-51 -97t-67.5 -81t-67.5 -72.5t-51 -71.5t-20.5 -79q0 -53 40 -93l88 -85 q48 -45 88 -102.5t40 -145.5q0 -70 -25.5 -128t-74 -101t-115 -67t-146.5 -24q-82 0 -149.5 13.5t-112.5 34.5q6 25 17.5 55.5t27.5 58.5q41 -14 97.5 -27.5t115.5 -13.5q45 0 86 11.5t72 34t49.5 56t18.5 78.5q0 49 -19.5 85t-47.5 65t-61.5 54.5t-61 56t-47 70.5t-19.5 98 q0 80 44 140t97 117.5t97 121t44 151.5q0 84 -60.5 126t-152.5 42q-70 0 -117 -18.5t-80.5 -60.5t-55 -110.5t-38.5 -166.5l-198 -1162q-35 -205 -126 -295t-261 -90q-45 0 -79.5 6.5t-57.5 16.5z" />
<glyph unicode="&#xe0;" horiz-adv-x="1110" d="M184 322q0 139 44 273t130 239.5t214 170t296 64.5q63 0 135 -11t115 -28l-104 -592l-36 -197q-15 -81 -15 -155q0 -29 1 -46t5 -40q-12 -2 -34 -3t-36 -1q-12 0 -33.5 1t-31.5 3q-6 51 -7 102q0 14 2 35t6.5 44.5t9.5 45.5l9 41q-18 -43 -54 -93t-87 -95t-114.5 -75 t-139.5 -30q-135 0 -205 91.5t-70 255.5zM328 344q0 -117 43 -183.5t125 -66.5q76 0 144.5 49.5t123.5 131t95 188t63 221.5l47 252q-55 14 -142 14q-104 0 -195 -46t-158.5 -128t-106.5 -192.5t-39 -239.5zM598 1481q23 2 47.5 3t48.5 1h46q24 0 46 -4l193 -267 q-37 -6 -70 -6q-45 0 -82 6z" />
<glyph unicode="&#xe1;" horiz-adv-x="1110" d="M184 322q0 139 44 273t130 239.5t214 170t296 64.5q63 0 135 -11t115 -28l-104 -592l-36 -197q-15 -81 -15 -155q0 -29 1 -46t5 -40q-12 -2 -34 -3t-36 -1q-12 0 -33.5 1t-31.5 3q-6 51 -7 102q0 14 2 35t6.5 44.5t9.5 45.5l9 41q-18 -43 -54 -93t-87 -95t-114.5 -75 t-139.5 -30q-135 0 -205 91.5t-70 255.5zM328 344q0 -117 43 -183.5t125 -66.5q76 0 144.5 49.5t123.5 131t95 188t63 221.5l47 252q-55 14 -142 14q-104 0 -195 -46t-158.5 -128t-106.5 -192.5t-39 -239.5zM743 1214l193 267q23 4 46 4h46q25 0 49.5 -1t46.5 -3l-229 -267 q-37 -6 -82 -6q-33 0 -70 6z" />
<glyph unicode="&#xe2;" horiz-adv-x="1110" d="M184 322q0 139 44 273t130 239.5t214 170t296 64.5q63 0 135 -11t115 -28l-104 -592l-36 -197q-15 -81 -15 -155q0 -29 1 -46t5 -40q-12 -2 -34 -3t-36 -1q-12 0 -33.5 1t-31.5 3q-6 51 -7 102q0 14 2 35t6.5 44.5t9.5 45.5l9 41q-18 -43 -54 -93t-87 -95t-114.5 -75 t-139.5 -30q-135 0 -205 91.5t-70 255.5zM328 344q0 -117 43 -183.5t125 -66.5q76 0 144.5 49.5t123.5 131t95 188t63 221.5l47 252q-55 14 -142 14q-104 0 -195 -46t-158.5 -128t-106.5 -192.5t-39 -239.5zM526 1214l260 265q18 4 40.5 5t43.5 1q18 0 48 -1t48 -5l150 -265 q-31 -6 -68 -6q-39 0 -76 6l-102 183l-172 -183q-23 -4 -47.5 -5t-40.5 -1t-42 1t-42 5z" />
<glyph unicode="&#xe3;" horiz-adv-x="1110" d="M184 322q0 139 44 273t130 239.5t214 170t296 64.5q63 0 135 -11t115 -28l-104 -592l-36 -197q-15 -81 -15 -155q0 -29 1 -46t5 -40q-12 -2 -34 -3t-36 -1q-12 0 -33.5 1t-31.5 3q-6 51 -7 102q0 14 2 35t6.5 44.5t9.5 45.5l9 41q-18 -43 -54 -93t-87 -95t-114.5 -75 t-139.5 -30q-135 0 -205 91.5t-70 255.5zM328 344q0 -117 43 -183.5t125 -66.5q76 0 144.5 49.5t123.5 131t95 188t63 221.5l47 252q-55 14 -142 14q-104 0 -195 -46t-158.5 -128t-106.5 -192.5t-39 -239.5zM508 1339q35 35 81 64t106 29q45 0 80.5 -11.5t68.5 -26 t66.5 -25.5t74.5 -11q35 0 59.5 11t63.5 44l27 -39q16 -25 20 -47q-35 -33 -82 -61.5t-106 -28.5q-45 0 -80 11.5t-67.5 25.5t-65.5 25.5t-72 11.5q-37 0 -63.5 -14.5t-61.5 -41.5q-16 16 -29.5 38.5t-19.5 45.5z" />
<glyph unicode="&#xe4;" horiz-adv-x="1110" d="M184 322q0 139 44 273t130 239.5t214 170t296 64.5q63 0 135 -11t115 -28l-104 -592l-36 -197q-15 -81 -15 -155q0 -29 1 -46t5 -40q-12 -2 -34 -3t-36 -1q-12 0 -33.5 1t-31.5 3q-6 51 -7 102q0 14 2 35t6.5 44.5t9.5 45.5l9 41q-18 -43 -54 -93t-87 -95t-114.5 -75 t-139.5 -30q-135 0 -205 91.5t-70 255.5zM328 344q0 -117 43 -183.5t125 -66.5q76 0 144.5 49.5t123.5 131t95 188t63 221.5l47 252q-55 14 -142 14q-104 0 -195 -46t-158.5 -128t-106.5 -192.5t-39 -239.5zM545 1255q2 45 8 88t22 87q39 6 82 6t84 -6q-2 -45 -8 -88.5 t-23 -86.5q-41 -6 -82 -6q-44 0 -83 6zM936 1255q2 45 8 88t22 87q39 6 82 6t84 -6q-2 -45 -8 -88.5t-22 -86.5q-41 -6 -82 -6q-45 0 -84 6z" />
<glyph unicode="&#xe5;" horiz-adv-x="1110" d="M184 322q0 139 44 273t130 239.5t214 170t296 64.5q63 0 135 -11t115 -28l-104 -592l-36 -197q-15 -81 -15 -155q0 -29 1 -46t5 -40q-12 -2 -34 -3t-36 -1q-12 0 -33.5 1t-31.5 3q-6 51 -7 102q0 14 2 35t6.5 44.5t9.5 45.5l9 41q-18 -43 -54 -93t-87 -95t-114.5 -75 t-139.5 -30q-135 0 -205 91.5t-70 255.5zM328 344q0 -117 43 -183.5t125 -66.5q76 0 144.5 49.5t123.5 131t95 188t63 221.5l47 252q-55 14 -142 14q-104 0 -195 -46t-158.5 -128t-106.5 -192.5t-39 -239.5zM680 1393q0 100 62.5 167.5t158.5 67.5q92 0 140.5 -55t48.5 -133 q0 -98 -62.5 -165t-161.5 -67q-92 0 -139 53.5t-47 131.5zM787 1405q0 -47 20.5 -77t67.5 -30q51 0 78.5 38t27.5 96q0 43 -18.5 74.5t-65.5 31.5q-53 0 -81.5 -39t-28.5 -94z" />
<glyph unicode="&#xe6;" horiz-adv-x="1673" d="M184 322q0 139 44 273t130 239.5t214 170t296 64.5q63 0 135 -11t115 -28l-22 -129q72 78 161 123t199 45q129 0 196.5 -66.5t67.5 -160.5q0 -88 -43 -151.5t-118.5 -107.5t-179 -73t-222.5 -47l-149 -25v-28q0 -145 67.5 -230.5t231.5 -85.5q39 0 82 6t81.5 15.5 t73.5 19.5t60 19q10 -23 15 -54.5t5 -56.5q-29 -12 -71 -24.5t-89 -21.5t-96 -15.5t-92 -6.5q-100 0 -170 24t-116 63.5t-70.5 94t-30.5 113.5q-33 -61 -76 -115.5t-94 -94.5t-111.5 -62.5t-128.5 -22.5q-150 0 -222.5 91.5t-72.5 255.5zM328 344q0 -117 43 -183.5 t125 -66.5q76 0 144.5 49.5t123.5 131t95 188t63 221.5l47 252q-55 14 -142 14q-104 0 -195 -46t-158.5 -128t-106.5 -192.5t-39 -239.5zM1022 543l121 20q207 33 321.5 92.5t114.5 165.5q0 55 -39 93t-115 38q-74 0 -139 -34.5t-117.5 -91t-90.5 -130t-56 -153.5z" />
<glyph unicode="&#xe7;" horiz-adv-x="937" d="M199 389q0 125 41 248t118.5 218t191.5 154.5t261 59.5q66 0 123 -13.5t92 -25.5q-2 -29 -13.5 -63.5t-25.5 -55.5q-37 14 -89 26.5t-107 12.5q-115 0 -199 -51t-139.5 -130t-83 -175t-27.5 -188q0 -160 77 -236t224 -76q57 0 115.5 11.5t107.5 27.5q10 -23 16.5 -54.5 t6.5 -55.5q-27 -10 -61.5 -18.5t-69.5 -14.5t-68 -10.5t-57 -4.5l-58 -100q10 2 18 2h19q90 0 135.5 -47t45.5 -109q0 -61 -22.5 -102t-61.5 -65.5t-88.5 -36t-102.5 -11.5q-66 0 -114 13.5t-72 25.5q4 23 14 52.5t25 48.5q27 -10 67.5 -20.5t73.5 -10.5q25 0 50.5 2 t47 11.5t34.5 27.5t13 51q0 41 -34.5 60.5t-96.5 19.5q-29 0 -55 -4l-51 -8l-8 8l110 201q-166 25 -244.5 130t-78.5 275z" />
<glyph unicode="&#xe8;" horiz-adv-x="1003" d="M195 387q0 125 43 247t119.5 218t184 156.5t236.5 60.5q135 0 204 -66.5t69 -160.5q0 -88 -43 -151.5t-119 -107.5t-179.5 -73t-222.5 -47l-149 -25v-28q0 -147 71.5 -231.5t227.5 -84.5q39 0 82 6t82 15.5t73.5 19.5t59.5 19q10 -23 15 -54.5t5 -56.5 q-29 -12 -70.5 -24.5t-88.5 -21.5t-96.5 -15.5t-92.5 -6.5q-117 0 -195.5 33t-126.5 89.5t-68.5 131t-20.5 158.5zM356 553l115 18q207 33 322.5 92.5t115.5 165.5q0 55 -39 89t-114 34q-74 0 -137.5 -33.5t-115.5 -89t-90.5 -128t-56.5 -148.5zM520 1481q23 2 47.5 3 t48.5 1h46q24 0 46 -4l193 -267q-37 -6 -70 -6q-45 0 -82 6z" />
<glyph unicode="&#xe9;" horiz-adv-x="1003" d="M195 387q0 125 43 247t119.5 218t184 156.5t236.5 60.5q135 0 204 -66.5t69 -160.5q0 -88 -43 -151.5t-119 -107.5t-179.5 -73t-222.5 -47l-149 -25v-28q0 -147 71.5 -231.5t227.5 -84.5q39 0 82 6t82 15.5t73.5 19.5t59.5 19q10 -23 15 -54.5t5 -56.5 q-29 -12 -70.5 -24.5t-88.5 -21.5t-96.5 -15.5t-92.5 -6.5q-117 0 -195.5 33t-126.5 89.5t-68.5 131t-20.5 158.5zM356 553l115 18q207 33 322.5 92.5t115.5 165.5q0 55 -39 89t-114 34q-74 0 -137.5 -33.5t-115.5 -89t-90.5 -128t-56.5 -148.5zM657 1214l193 267q23 4 46 4 h46q25 0 49.5 -1t46.5 -3l-229 -267q-37 -6 -82 -6q-33 0 -70 6z" />
<glyph unicode="&#xea;" horiz-adv-x="1003" d="M195 387q0 125 43 247t119.5 218t184 156.5t236.5 60.5q135 0 204 -66.5t69 -160.5q0 -88 -43 -151.5t-119 -107.5t-179.5 -73t-222.5 -47l-149 -25v-28q0 -147 71.5 -231.5t227.5 -84.5q39 0 82 6t82 15.5t73.5 19.5t59.5 19q10 -23 15 -54.5t5 -56.5 q-29 -12 -70.5 -24.5t-88.5 -21.5t-96.5 -15.5t-92.5 -6.5q-117 0 -195.5 33t-126.5 89.5t-68.5 131t-20.5 158.5zM356 553l115 18q207 33 322.5 92.5t115.5 165.5q0 55 -39 89t-114 34q-74 0 -137.5 -33.5t-115.5 -89t-90.5 -128t-56.5 -148.5zM453 1214l260 265 q18 4 40.5 5t43.5 1q18 0 48 -1t48 -5l150 -265q-31 -6 -68 -6q-39 0 -76 6l-102 183l-172 -183q-23 -4 -47.5 -5t-40.5 -1t-42 1t-42 5z" />
<glyph unicode="&#xeb;" horiz-adv-x="1003" d="M195 387q0 125 43 247t119.5 218t184 156.5t236.5 60.5q135 0 204 -66.5t69 -160.5q0 -88 -43 -151.5t-119 -107.5t-179.5 -73t-222.5 -47l-149 -25v-28q0 -147 71.5 -231.5t227.5 -84.5q39 0 82 6t82 15.5t73.5 19.5t59.5 19q10 -23 15 -54.5t5 -56.5 q-29 -12 -70.5 -24.5t-88.5 -21.5t-96.5 -15.5t-92.5 -6.5q-117 0 -195.5 33t-126.5 89.5t-68.5 131t-20.5 158.5zM356 553l115 18q207 33 322.5 92.5t115.5 165.5q0 55 -39 89t-114 34q-74 0 -137.5 -33.5t-115.5 -89t-90.5 -128t-56.5 -148.5zM465 1255q2 45 8 88t22 87 q39 6 82 6t84 -6q-2 -45 -8 -88.5t-23 -86.5q-41 -6 -82 -6q-44 0 -83 6zM856 1255q2 45 8 88t22 87q39 6 82 6t84 -6q-2 -45 -8 -88.5t-22 -86.5q-41 -6 -82 -6q-45 0 -84 6z" />
<glyph unicode="&#xec;" horiz-adv-x="542" d="M225 0l164 930h-127q0 29 5 57.5t14 56.5h262l-183 -1044q-12 -2 -34.5 -3t-36.5 -1q-12 0 -33 1t-31 3zM227 1481q23 2 47.5 3t48.5 1h46q24 0 46 -4l193 -267q-37 -6 -70 -6q-45 0 -82 6z" />
<glyph unicode="&#xed;" horiz-adv-x="542" d="M225 0l164 930h-127q0 29 5 57.5t14 56.5h262l-183 -1044q-12 -2 -34.5 -3t-36.5 -1q-12 0 -33 1t-31 3zM325 1214l193 267q23 4 46 4h46q25 0 49.5 -1t46.5 -3l-229 -267q-37 -6 -82 -6q-33 0 -70 6z" />
<glyph unicode="&#xee;" horiz-adv-x="542" d="M225 0l164 930h-127q0 29 5 57.5t14 56.5h262l-183 -1044q-12 -2 -34.5 -3t-36.5 -1q-12 0 -33 1t-31 3zM143 1214l260 265q18 4 40.5 5t43.5 1q18 0 48 -1t48 -5l150 -265q-31 -6 -68 -6q-39 0 -76 6l-102 183l-172 -183q-23 -4 -47.5 -5t-40.5 -1t-42 1t-42 5z" />
<glyph unicode="&#xef;" horiz-adv-x="542" d="M225 0l164 930h-127q0 29 5 57.5t14 56.5h262l-183 -1044q-12 -2 -34.5 -3t-36.5 -1q-12 0 -33 1t-31 3zM170 1255q2 45 8 88t22 87q39 6 82 6t84 -6q-2 -45 -8 -88.5t-23 -86.5q-41 -6 -82 -6q-44 0 -83 6zM561 1255q2 45 8 88t22 87q39 6 82 6t84 -6q-2 -45 -8 -88.5 t-22 -86.5q-41 -6 -82 -6q-45 0 -84 6z" />
<glyph unicode="&#xf0;" horiz-adv-x="1146" d="M193 383q0 104 31.5 214t94 199t158.5 146t225 57q111 0 194 -50t124 -122q12 264 -111 412l-233 -125q-20 23 -32.5 52.5t-12.5 54.5l186 100q-94 61 -229 74q0 8 1 17t5 28q6 14 14 35.5t19 33.5q201 -23 323 -116l224 118q18 -16 32.5 -48.5t18.5 -55.5l-189 -100 q133 -172 133 -482q0 -143 -29.5 -293.5t-100 -274.5t-185.5 -203t-285 -79q-102 0 -173.5 33t-117 89.5t-65.5 130t-20 155.5zM336 389q0 -63 12 -117.5t42 -93.5t77 -60.5t119 -21.5q92 0 165.5 43t126 111.5t80 152.5t27.5 164q0 152 -74.5 234t-210.5 82 q-96 0 -164.5 -47.5t-112.5 -120t-65.5 -159.5t-21.5 -167z" />
<glyph unicode="&#xf1;" horiz-adv-x="1163" d="M207 0l106 610l36 198q15 81 16 155q0 29 -1.5 46t-5.5 40q12 2 34 3t36 1q12 0 33.5 -1t32.5 -3q4 -16 5 -36t1 -48q0 -53 -8.5 -102.5t-18.5 -86.5q18 43 55 93.5t88.5 95.5t116 74.5t139.5 29.5q123 0 192 -67.5t69 -198.5q0 -31 -4.5 -70t-10.5 -74l-114 -659 q-12 -2 -34 -3t-36 -1q-12 0 -33.5 1t-32.5 3l109 618q6 37 10 76t4 68q0 98 -47 140t-121 42t-140.5 -48t-121.5 -129t-95 -186.5t-60 -220.5l-64 -360q-12 -2 -33.5 -3t-36.5 -1q-12 0 -33.5 1t-31.5 3zM469 1339q35 35 81 64t106 29q45 0 80.5 -11.5t68.5 -26t66.5 -25.5 t74.5 -11q35 0 59.5 11t63.5 44l27 -39q16 -25 20 -47q-35 -33 -82 -61.5t-106 -28.5q-45 0 -80 11.5t-67.5 25.5t-65.5 25.5t-72 11.5q-37 0 -63.5 -14.5t-61.5 -41.5q-16 16 -29.5 38.5t-19.5 45.5z" />
<glyph unicode="&#xf2;" horiz-adv-x="1140" d="M199 373q0 106 33.5 228t104.5 226.5t180.5 173t258.5 68.5q174 0 269.5 -101.5t95.5 -295.5q0 -106 -34 -228t-104.5 -226.5t-180 -173.5t-259.5 -69q-174 0 -269 101.5t-95 296.5zM342 375q0 -135 62.5 -208t173.5 -73t189.5 55.5t129.5 139.5t75.5 186.5t24.5 194.5 q0 135 -62.5 207.5t-172.5 72.5q-111 0 -189.5 -55t-130 -139t-76 -186.5t-24.5 -194.5zM616 1481q23 2 47.5 3t48.5 1h46q24 0 46 -4l193 -267q-37 -6 -70 -6q-45 0 -82 6z" />
<glyph unicode="&#xf3;" horiz-adv-x="1140" d="M199 373q0 106 33.5 228t104.5 226.5t180.5 173t258.5 68.5q174 0 269.5 -101.5t95.5 -295.5q0 -106 -34 -228t-104.5 -226.5t-180 -173.5t-259.5 -69q-174 0 -269 101.5t-95 296.5zM342 375q0 -135 62.5 -208t173.5 -73t189.5 55.5t129.5 139.5t75.5 186.5t24.5 194.5 q0 135 -62.5 207.5t-172.5 72.5q-111 0 -189.5 -55t-130 -139t-76 -186.5t-24.5 -194.5zM661 1214l193 267q23 4 46 4h46q25 0 49.5 -1t46.5 -3l-229 -267q-37 -6 -82 -6q-33 0 -70 6z" />
<glyph unicode="&#xf4;" horiz-adv-x="1140" d="M199 373q0 106 33.5 228t104.5 226.5t180.5 173t258.5 68.5q174 0 269.5 -101.5t95.5 -295.5q0 -106 -34 -228t-104.5 -226.5t-180 -173.5t-259.5 -69q-174 0 -269 101.5t-95 296.5zM342 375q0 -135 62.5 -208t173.5 -73t189.5 55.5t129.5 139.5t75.5 186.5t24.5 194.5 q0 135 -62.5 207.5t-172.5 72.5q-111 0 -189.5 -55t-130 -139t-76 -186.5t-24.5 -194.5zM490 1214l260 265q18 4 40.5 5t43.5 1q18 0 48 -1t48 -5l150 -265q-31 -6 -68 -6q-39 0 -76 6l-102 183l-172 -183q-23 -4 -47.5 -5t-40.5 -1t-42 1t-42 5z" />
<glyph unicode="&#xf5;" horiz-adv-x="1140" d="M199 373q0 106 33.5 228t104.5 226.5t180.5 173t258.5 68.5q174 0 269.5 -101.5t95.5 -295.5q0 -106 -34 -228t-104.5 -226.5t-180 -173.5t-259.5 -69q-174 0 -269 101.5t-95 296.5zM342 375q0 -135 62.5 -208t173.5 -73t189.5 55.5t129.5 139.5t75.5 186.5t24.5 194.5 q0 135 -62.5 207.5t-172.5 72.5q-111 0 -189.5 -55t-130 -139t-76 -186.5t-24.5 -194.5zM465 1339q35 35 81 64t106 29q45 0 80.5 -11.5t68.5 -26t66.5 -25.5t74.5 -11q35 0 59.5 11t63.5 44l27 -39q16 -25 20 -47q-35 -33 -82 -61.5t-106 -28.5q-45 0 -80 11.5t-67.5 25.5 t-65.5 25.5t-72 11.5q-37 0 -63.5 -14.5t-61.5 -41.5q-16 16 -29.5 38.5t-19.5 45.5z" />
<glyph unicode="&#xf6;" horiz-adv-x="1140" d="M199 373q0 106 33.5 228t104.5 226.5t180.5 173t258.5 68.5q174 0 269.5 -101.5t95.5 -295.5q0 -106 -34 -228t-104.5 -226.5t-180 -173.5t-259.5 -69q-174 0 -269 101.5t-95 296.5zM342 375q0 -135 62.5 -208t173.5 -73t189.5 55.5t129.5 139.5t75.5 186.5t24.5 194.5 q0 135 -62.5 207.5t-172.5 72.5q-111 0 -189.5 -55t-130 -139t-76 -186.5t-24.5 -194.5zM510 1255q2 45 8 88t22 87q39 6 82 6t84 -6q-2 -45 -8 -88.5t-23 -86.5q-41 -6 -82 -6q-44 0 -83 6zM901 1255q2 45 8 88t22 87q39 6 82 6t84 -6q-2 -45 -8 -88.5t-22 -86.5 q-41 -6 -82 -6q-45 0 -84 6z" />
<glyph unicode="&#xf7;" d="M313 651q0 10 2 30.5t7 37.5q4 18 8 39.5t8 32.5h872q0 -10 -2 -33t-6 -39t-8 -36.5t-8 -31.5h-873zM582 375q0 59 40 96t93 37q51 0 80.5 -27.5t29.5 -81.5q0 -47 -35.5 -89t-99.5 -42q-51 0 -79.5 33t-28.5 74zM690 1047q0 59 40 96t93 37q51 0 81 -28t30 -81 q0 -47 -36 -89t-99 -42q-51 0 -80 33t-29 74z" />
<glyph unicode="&#xf8;" horiz-adv-x="1140" d="M129 -33l129 156q-59 96 -59 250q0 106 33.5 228t104.5 226.5t180.5 173t258.5 68.5q133 0 223 -61l54 63q12 4 30.5 5t36.5 1q39 0 70 -6l-117 -139q68 -102 68 -260q0 -106 -34 -228t-104.5 -226.5t-180 -173.5t-259.5 -69q-72 0 -130 17.5t-103 50.5l-64 -76 q-29 -6 -67 -6q-18 0 -37 1t-33 5zM342 375q0 -76 18 -131l549 657q-59 49 -147 49q-111 0 -189.5 -55t-130 -139t-76 -186.5t-24.5 -194.5zM420 152q63 -57 158 -58q111 0 189.5 55.5t129.5 139.5t75.5 186.5t24.5 194.5q0 41 -7 76.5t-17 64.5z" />
<glyph unicode="&#xf9;" horiz-adv-x="1136" d="M219 242q0 31 4 69.5t10 73.5l115 659q12 2 33.5 3.5t36.5 1.5q12 0 33.5 -1t31.5 -4l-108 -618q-6 -37 -10.5 -76t-4.5 -67q0 -98 47.5 -140.5t120.5 -42.5q74 0 140.5 48.5t122 129t95.5 186t60 220.5l64 360q12 2 33.5 3.5t35.5 1.5q12 0 34 -1t32 -4l-107 -610 l-36 -197q-15 -81 -15 -155q0 -29 1 -46.5t5 -39.5q-12 -2 -33.5 -3t-35.5 -1q-12 0 -34 1t-32 3q-6 33 -6 84q0 53 8 102t19 86q-18 -43 -55.5 -93t-88.5 -95t-115.5 -75t-140.5 -30q-123 0 -191.5 68t-68.5 199zM522 1481q23 2 47.5 3t48.5 1h46q24 0 46 -4l193 -267 q-37 -6 -70 -6q-45 0 -82 6z" />
<glyph unicode="&#xfa;" horiz-adv-x="1136" d="M219 242q0 31 4 69.5t10 73.5l115 659q12 2 33.5 3.5t36.5 1.5q12 0 33.5 -1t31.5 -4l-108 -618q-6 -37 -10.5 -76t-4.5 -67q0 -98 47.5 -140.5t120.5 -42.5q74 0 140.5 48.5t122 129t95.5 186t60 220.5l64 360q12 2 33.5 3.5t35.5 1.5q12 0 34 -1t32 -4l-107 -610 l-36 -197q-15 -81 -15 -155q0 -29 1 -46.5t5 -39.5q-12 -2 -33.5 -3t-35.5 -1q-12 0 -34 1t-32 3q-6 33 -6 84q0 53 8 102t19 86q-18 -43 -55.5 -93t-88.5 -95t-115.5 -75t-140.5 -30q-123 0 -191.5 68t-68.5 199zM688 1214l193 267q23 4 46 4h46q25 0 49.5 -1t46.5 -3 l-229 -267q-37 -6 -82 -6q-33 0 -70 6z" />
<glyph unicode="&#xfb;" horiz-adv-x="1136" d="M219 242q0 31 4 69.5t10 73.5l115 659q12 2 33.5 3.5t36.5 1.5q12 0 33.5 -1t31.5 -4l-108 -618q-6 -37 -10.5 -76t-4.5 -67q0 -98 47.5 -140.5t120.5 -42.5q74 0 140.5 48.5t122 129t95.5 186t60 220.5l64 360q12 2 33.5 3.5t35.5 1.5q12 0 34 -1t32 -4l-107 -610 l-36 -197q-15 -81 -15 -155q0 -29 1 -46.5t5 -39.5q-12 -2 -33.5 -3t-35.5 -1q-12 0 -34 1t-32 3q-6 33 -6 84q0 53 8 102t19 86q-18 -43 -55.5 -93t-88.5 -95t-115.5 -75t-140.5 -30q-123 0 -191.5 68t-68.5 199zM473 1214l260 265q18 4 40.5 5t43.5 1q18 0 48 -1t48 -5 l150 -265q-31 -6 -68 -6q-39 0 -76 6l-102 183l-172 -183q-23 -4 -47.5 -5t-40.5 -1t-42 1t-42 5z" />
<glyph unicode="&#xfc;" horiz-adv-x="1136" d="M219 242q0 31 4 69.5t10 73.5l115 659q12 2 33.5 3.5t36.5 1.5q12 0 33.5 -1t31.5 -4l-108 -618q-6 -37 -10.5 -76t-4.5 -67q0 -98 47.5 -140.5t120.5 -42.5q74 0 140.5 48.5t122 129t95.5 186t60 220.5l64 360q12 2 33.5 3.5t35.5 1.5q12 0 34 -1t32 -4l-107 -610 l-36 -197q-15 -81 -15 -155q0 -29 1 -46.5t5 -39.5q-12 -2 -33.5 -3t-35.5 -1q-12 0 -34 1t-32 3q-6 33 -6 84q0 53 8 102t19 86q-18 -43 -55.5 -93t-88.5 -95t-115.5 -75t-140.5 -30q-123 0 -191.5 68t-68.5 199zM500 1255q2 45 8 88t22 87q39 6 82 6t84 -6 q-2 -45 -8 -88.5t-23 -86.5q-41 -6 -82 -6q-44 0 -83 6zM891 1255q2 45 8 88t22 87q39 6 82 6t84 -6q-2 -45 -8 -88.5t-22 -86.5q-41 -6 -82 -6q-45 0 -84 6z" />
<glyph unicode="&#xfd;" horiz-adv-x="960" d="M39 -487q0 35 9 65.5t26 48.5q20 -6 45.5 -10t54.5 -4q31 0 58.5 9t57 39t61.5 84t73 144l47 107q-23 0 -46.5 1t-33.5 3l-170 1044q18 4 32.5 5.5t33.5 1.5q43 0 80 -7l143 -964l367 813q20 43 30.5 85t10.5 58v8q37 6 69 7q39 0 76 -7v-8q0 -33 -10.5 -65.5 t-38.5 -91.5l-508 -1098q-41 -88 -81 -143.5t-82 -87t-85 -44t-92 -12.5q-66 1 -127 19zM553 1214l193 267q23 4 46 4h46q25 0 49.5 -1t46.5 -3l-229 -267q-37 -6 -82 -6q-33 0 -70 6z" />
<glyph unicode="&#xfe;" horiz-adv-x="1126" d="M84 -483l276 1550q23 117 37.5 198t14.5 154q0 29 -1 46.5t-5 39.5q12 2 33.5 3t35.5 1q12 0 33.5 -1t32.5 -3q4 -16 5 -32.5t1 -45.5q0 -12 -5 -76.5t-22 -146.5l-57 -327q59 82 138 137t206 55q137 0 224 -99.5t87 -275.5q0 -158 -49 -290t-139 -227t-218 -148.5 t-286 -53.5q-29 0 -60.5 3.5l-64.5 7.5l-80 -469q-10 -2 -33.5 -3t-33.5 -1q-14 0 -36 1t-34 3zM326 109q29 -8 65.5 -12.5t69.5 -4.5q96 0 188 36t165 107.5t117 178t44 245.5q0 137 -60.5 212t-162.5 75q-55 0 -110.5 -23.5t-104 -79t-87 -145.5t-61.5 -221z" />
<glyph unicode="&#xff;" horiz-adv-x="960" d="M39 -487q0 35 9 65.5t26 48.5q20 -6 45.5 -10t54.5 -4q31 0 58.5 9t57 39t61.5 84t73 144l47 107q-23 0 -46.5 1t-33.5 3l-170 1044q18 4 32.5 5.5t33.5 1.5q43 0 80 -7l143 -964l367 813q20 43 30.5 85t10.5 58v8q37 6 69 7q39 0 76 -7v-8q0 -33 -10.5 -65.5 t-38.5 -91.5l-508 -1098q-41 -88 -81 -143.5t-82 -87t-85 -44t-92 -12.5q-66 1 -127 19zM386 1255q2 45 8 88t22 87q39 6 82 6t84 -6q-2 -45 -8 -88.5t-23 -86.5q-41 -6 -82 -6q-44 0 -83 6zM777 1255q2 45 8 88t22 87q39 6 82 6t84 -6q-2 -45 -8 -88.5t-22 -86.5 q-41 -6 -82 -6q-45 0 -84 6z" />
<glyph unicode="&#x131;" horiz-adv-x="542" d="M225 0l164 930h-127q0 29 5 57.5t14 56.5h262l-183 -1044q-12 -2 -34.5 -3t-36.5 -1q-12 0 -33 1t-31 3z" />
<glyph unicode="&#x152;" horiz-adv-x="1849" d="M248 510q0 203 50 383t144.5 314t230.5 212t310 78q74 0 144.5 -7t127.5 -17h758q0 -10 -1 -30t-5 -36l-16 -64h-615l-88 -497h494q0 -12 -1 -29.5t-5 -34.5q-4 -14 -8.5 -33.5t-8.5 -31.5h-493l-103 -588h631q-2 -12 -3 -29.5t-5 -33.5q-2 -14 -6 -34t-8 -32h-793 q-53 -10 -113.5 -17.5t-128.5 -7.5q-127 0 -219 40t-152.5 112t-89 170t-28.5 213zM395 545q0 -104 20.5 -187.5t64.5 -141.5t114 -89t170 -31q98 0 157.5 9.5t96.5 19.5l215 1218q-51 16 -109.5 25.5t-150.5 9.5q-131 0 -237.5 -66.5t-182.5 -180t-117 -265t-41 -321.5z " />
<glyph unicode="&#x153;" horiz-adv-x="1763" d="M190 373q0 106 34 228t104.5 226.5t180 173t259.5 68.5q70 0 126 -21.5t97 -58.5t67.5 -86t37.5 -104q76 119 190.5 194.5t259.5 75.5q129 0 196.5 -66.5t67.5 -160.5q0 -88 -43 -151.5t-118.5 -107.5t-179 -73t-222.5 -47l-149 -25v-28q0 -147 71.5 -231.5t227.5 -84.5 q39 0 82 6t81.5 15.5t73.5 19.5t60 19q10 -23 15 -54.5t5 -56.5q-29 -12 -70.5 -24.5t-89 -21.5t-96.5 -15.5t-92 -6.5q-90 0 -154.5 19.5t-108.5 54.5t-71.5 82t-40.5 105q-66 -111 -173 -186t-263 -75q-174 0 -269.5 101.5t-95.5 296.5zM334 375q0 -135 62.5 -208 t172.5 -73q111 0 190 55.5t130 139.5t75.5 186.5t24.5 194.5q0 135 -62.5 207.5t-172.5 72.5q-111 0 -190 -55t-130 -139t-75.5 -186.5t-24.5 -194.5zM1112 543l121 20q207 33 321.5 92.5t114.5 165.5q0 55 -39 93t-114 38q-74 0 -139.5 -34.5t-118 -91t-90.5 -130 t-56 -153.5z" />
<glyph unicode="&#x178;" horiz-adv-x="1103" d="M297 1473q12 2 34.5 3t43.5 1q18 0 40.5 -1t37.5 -3l225 -775l455 775q16 2 36.5 3t42.5 1q20 0 42 -1t34 -3l-565 -936l-92 -537q-16 -2 -33.5 -3t-38.5 -1q-23 0 -41 1t-29 3l97 545zM505 1593q0 47 8.5 94.5t22.5 88.5q49 6 90 6q51 0 88 -6q0 -96 -30 -183 q-43 -6 -90 -6q-46 0 -89 6zM933 1593q0 47 9.5 93.5t21.5 89.5q43 6 90 6q45 0 88 -6q0 -47 -8 -94.5t-22 -88.5q-49 -6 -90 -6q-52 0 -89 6z" />
<glyph unicode="&#x2c6;" horiz-adv-x="1024" d="M422 1214l260 265q18 4 40.5 5t43.5 1q18 0 48 -1t48 -5l150 -265q-31 -6 -68 -6q-39 0 -76 6l-102 183l-172 -183q-23 -4 -47.5 -5t-40.5 -1t-42 1t-42 5z" />
<glyph unicode="&#x2da;" horiz-adv-x="1024" d="M516 1393q0 100 62.5 167.5t158.5 67.5q92 0 140.5 -55t48.5 -133q0 -98 -62.5 -165t-161.5 -67q-92 0 -139 53.5t-47 131.5zM623 1405q0 -47 20.5 -77t67.5 -30q51 0 78.5 38t27.5 96q0 43 -18.5 74.5t-65.5 31.5q-53 0 -81.5 -39t-28.5 -94z" />
<glyph unicode="&#x2dc;" horiz-adv-x="1024" d="M391 1339q35 35 81 64t106 29q45 0 80.5 -11.5t68.5 -26t66.5 -25.5t74.5 -11q35 0 59.5 11t63.5 44l27 -39q16 -25 20 -47q-35 -33 -82 -61.5t-106 -28.5q-45 0 -80 11.5t-67.5 25.5t-65.5 25.5t-72 11.5q-37 0 -63.5 -14.5t-61.5 -41.5q-16 16 -29.5 38.5t-19.5 45.5z " />
<glyph unicode="&#x2000;" horiz-adv-x="958" />
<glyph unicode="&#x2001;" horiz-adv-x="1916" />
<glyph unicode="&#x2002;" horiz-adv-x="958" />
<glyph unicode="&#x2003;" horiz-adv-x="1916" />
<glyph unicode="&#x2004;" horiz-adv-x="638" />
<glyph unicode="&#x2005;" horiz-adv-x="479" />
<glyph unicode="&#x2006;" horiz-adv-x="319" />
<glyph unicode="&#x2007;" horiz-adv-x="319" />
<glyph unicode="&#x2008;" horiz-adv-x="239" />
<glyph unicode="&#x2009;" horiz-adv-x="382" />
<glyph unicode="&#x200a;" horiz-adv-x="106" />
<glyph unicode="&#x2010;" horiz-adv-x="686" d="M195 514q4 72 24 139h520q0 -10 -3 -32.5t-7 -38.5t-7 -37t-7 -31h-520z" />
<glyph unicode="&#x2011;" horiz-adv-x="686" d="M195 514q4 72 24 139h520q0 -10 -3 -32.5t-7 -38.5t-7 -37t-7 -31h-520z" />
<glyph unicode="&#x2012;" horiz-adv-x="686" d="M195 514q4 72 24 139h520q0 -10 -3 -32.5t-7 -38.5t-7 -37t-7 -31h-520z" />
<glyph unicode="&#x2013;" horiz-adv-x="1024" d="M88 514q2 35 7 68.5t18 68.5h1024q-2 -35 -7.5 -68.5t-17.5 -68.5h-1024z" />
<glyph unicode="&#x2014;" horiz-adv-x="2048" d="M88 514q2 66 25 137h2048q-2 -35 -7.5 -68.5t-17.5 -68.5h-2048z" />
<glyph unicode="&#x2018;" horiz-adv-x="409" d="M297 1473q16 2 32.5 3t37.5 1h35q17 0 36 -2l115 -408q-16 -4 -33 -4h-37h-34q-18 0 -39 4z" />
<glyph unicode="&#x2019;" horiz-adv-x="423" d="M285 1065l176 408q18 2 36 2h35q20 0 37 -1t33 -4l-174 -405q-20 -4 -39 -4h-35h-37q-16 0 -32 4z" />
<glyph unicode="&#x201a;" horiz-adv-x="399" d="M12 -231l176 405q18 4 36 4h36q20 0 36.5 -1t33.5 -3l-174 -405q-20 -4 -39 -5h-35h-37q-17 1 -33 5z" />
<glyph unicode="&#x201c;" horiz-adv-x="757" d="M297 1473q16 2 32.5 3t37.5 1h35q17 0 36 -2l115 -408q-16 -4 -33 -4h-37h-34q-18 0 -39 4zM645 1473q16 2 32.5 3t37.5 1h35q17 0 36 -2l115 -408q-16 -4 -33 -4h-37h-34q-18 0 -39 4z" />
<glyph unicode="&#x201d;" horiz-adv-x="772" d="M285 1065l176 408q18 2 36 2h35q20 0 37 -1t33 -4l-174 -405q-20 -4 -39 -4h-35h-37q-16 0 -32 4zM633 1065l176 408q18 2 36 2h35q20 0 37 -1t33 -4l-174 -405q-20 -4 -39 -4h-35h-37q-16 0 -32 4z" />
<glyph unicode="&#x201e;" horiz-adv-x="747" d="M12 -231l176 405q18 4 36 4h36q20 0 36.5 -1t33.5 -3l-174 -405q-20 -4 -39 -5h-35h-37q-17 1 -33 5zM360 -231l176 405q18 4 36 4h36q20 0 36.5 -1t33.5 -3l-174 -405q-20 -4 -39 -5h-35h-37q-17 1 -33 5z" />
<glyph unicode="&#x2022;" horiz-adv-x="768" d="M262 682q0 47 18.5 89t49 72.5t72.5 49t92 18.5q47 0 89 -18.5t72.5 -49t49 -72.5t18.5 -89q0 -49 -18.5 -91t-49 -73t-72.5 -49t-89 -18q-49 0 -91.5 18t-73 49t-49 73t-18.5 91z" />
<glyph unicode="&#x2026;" horiz-adv-x="1333" d="M113 0q0 47 8 86q4 23 9 44.5t11 43.5q43 6 88 6t86 -6q0 -47 -8 -86q-4 -23 -9 -44t-11 -44q-53 -6 -88 -6q-23 0 -45.5 1t-40.5 5zM580 0q0 47 8 86q4 23 9 44.5t11 43.5q43 6 88 6t86 -6q0 -47 -8 -86q-4 -23 -9 -44t-11 -44q-53 -6 -88 -6q-23 0 -45.5 1t-40.5 5z M1047 0q0 47 8 86q4 23 9 44.5t11 43.5q43 6 88 6t86 -6q0 -47 -8 -86q-4 -23 -9 -44t-11 -44q-53 -6 -88 -6q-23 0 -45.5 1t-40.5 5z" />
<glyph unicode="&#x202f;" horiz-adv-x="382" />
<glyph unicode="&#x2039;" horiz-adv-x="659" d="M174 557l428 442q18 4 45 5.5t47 1.5q39 0 80 -7l-428 -450l270 -455q-41 -6 -77 -6q-41 0 -78 6z" />
<glyph unicode="&#x203a;" horiz-adv-x="720" d="M111 94l432 457l-275 448q39 6 78 7q41 0 78 -7l287 -462l-435 -443q-18 -4 -41.5 -5t-44.5 -1q-40 0 -79 6z" />
<glyph unicode="&#x2044;" horiz-adv-x="450" d="M-481 0l1243 1448q16 2 44 3t44 1q20 0 39.5 -1t40.5 -3l-1241 -1448q-23 -4 -41 -4h-37h-47q-29 0 -45 4z" />
<glyph unicode="&#x205f;" horiz-adv-x="479" />
<glyph unicode="&#x2070;" horiz-adv-x="921" d="M244 950q0 92 25.5 184.5t76.5 168t130 123t186 47.5q158 0 232.5 -94.5t74.5 -252.5q0 -94 -27 -187t-79 -168t-132 -121t-186 -46q-152 0 -226.5 94t-74.5 252zM391 956q0 -238 166 -237q70 0 119 37t82 94t48 129t15 139q0 240 -170 240q-68 0 -117 -37t-80.5 -95.5 t-47 -130t-15.5 -139.5z" />
<glyph unicode="&#x2074;" horiz-adv-x="921" d="M231 813l441 664q33 -6 60.5 -16.5t47.5 -20.5l-344 -529h234l32 176q31 6 62 7q18 0 29.5 -1t27.5 -6l-30 -176h100q4 -25 -2 -58.5t-19 -55.5h-100l-31 -172h-49q-14 0 -30.5 1t-36.5 3l28 168h-411z" />
<glyph unicode="&#x20ac;" d="M162 504q-2 29 3 59.5t19 59.5h135q4 53 10.5 104t16.5 102h-127q-2 55 21 119h139q37 113 96.5 208t145.5 165t198.5 109.5t253.5 39.5q109 0 185.5 -18t111.5 -31q-10 -37 -18.5 -60.5t-28.5 -57.5q-51 18 -111.5 30.5t-154.5 12.5q-106 0 -191.5 -30t-151 -82 t-111.5 -125t-77 -161h623q4 -29 -2 -58.5t-19 -60.5h-632q-10 -49 -16.5 -101t-10.5 -105h625q0 -59 -23 -119h-600q10 -197 100.5 -299.5t276.5 -102.5q90 0 169 18.5t138 49.5q31 -47 37 -117q-37 -18 -81 -32.5t-92 -24.5t-96.5 -15.5t-93.5 -5.5q-250 0 -377.5 137.5 t-134.5 391.5h-155z" />
<glyph unicode="&#x2122;" horiz-adv-x="1730" d="M240 1389q0 16 1 29.5t5 29.5h631q4 -16 5 -28.5t1 -28.5q0 -27 -6 -58h-256v-704q-16 -4 -29.5 -5t-30.5 -1h-30q-15 0 -29 4v706h-256q-4 16 -5 28t-1 28zM975 627l39 821q16 2 31.5 3t31.5 1q18 0 37 -1t35 -3l240 -492l237 492q16 2 32.5 3t33.5 1q18 0 35.5 -1 t33.5 -3l37 -819q-16 -4 -28.5 -5t-28.5 -1h-30q-15 0 -30 4l-32 602l-224 -441q-12 -2 -22 -3t-21 -1q-10 0 -20 1t-23 3l-215 439l-28 -598q-16 -4 -29.5 -5t-30.5 -1h-29q-16 0 -32 4z" />
<glyph unicode="&#x2212;" d="M297 651q0 68 22 140h873q0 -68 -23 -140h-872z" />
<glyph unicode="&#xe000;" horiz-adv-x="1050" d="M0 1050h1050v-1050h-1050v1050z" />
<glyph unicode="&#xfb01;" horiz-adv-x="1148" d="M-180 -477q10 41 19 63l22 52q20 -8 44.5 -13.5t57.5 -5.5q49 0 89 10.5t70 39t51.5 82.5t35.5 140l182 1039h-170q0 29 3 56.5t16 57.5h170l16 93q35 193 134 289t274 96q49 0 96 -7.5t87 -16.5t70.5 -18.5t42.5 -15.5q-4 -35 -15 -61.5t-28 -52.5q-39 16 -108.5 35.5 t-144.5 19.5q-55 0 -99.5 -12.5t-77 -43t-57.5 -84t-39 -135.5l-16 -86h606l-182 -1044q-12 -2 -35 -3t-37 -1q-12 0 -32.5 1t-30.5 3l163 930h-471l-182 -1045q-35 -205 -125 -295t-262 -90q-45 0 -79.5 6.5t-57.5 16.5z" />
<glyph unicode="&#xfb02;" horiz-adv-x="1224" d="M-180 -477q10 41 19 63l22 52q20 -8 44.5 -13.5t57.5 -5.5q49 0 89 10.5t70 39t51.5 82.5t35.5 140l182 1039h-170q0 29 3 56.5t16 57.5h170l16 93q35 193 134 289t274 96q49 0 100 -5.5t100 -14.5t92 -20.5t74 -21.5q2 -23 2 -40v-34q0 -25 -4 -61.5t-9 -77.5t-12.5 -83 l-13.5 -74l-149 -848q-6 -31 -6 -54q0 -33 9 -51t23.5 -27.5t30.5 -11.5t33 -2q25 0 50.5 4t39.5 9q8 -23 11 -52.5t1 -54.5q-31 -10 -71.5 -15t-71.5 -5q-37 0 -72 7t-62.5 25.5t-44 51t-16.5 81.5q0 27 6 64l142 809l32 195q13 85 17 155q-41 16 -103.5 25.5t-127.5 9.5 q-55 0 -99.5 -12.5t-77 -43t-57.5 -84t-39 -135.5l-16 -86h272q0 -29 -3 -56t-15 -58h-273l-182 -1045q-35 -205 -125 -295t-262 -90q-45 0 -79.5 6.5t-57.5 16.5z" />
<glyph unicode="&#xfb03;" horiz-adv-x="1755" d="M-180 -477q10 41 19 63l22 52q20 -8 44.5 -13.5t57.5 -5.5q49 0 89 10.5t70 39t51.5 82.5t35.5 140l182 1039h-170q0 29 3 56.5t16 57.5h170l16 93q35 193 125 289t262 96q45 0 80 -6.5t57 -16.5q-10 -41 -20 -63l-23 -52q-20 8 -43.5 14.5t-56.5 6.5q-49 0 -88 -12.5 t-68.5 -43t-52.5 -84t-37 -135.5l-16 -86h469l16 93q35 193 134.5 289t273.5 96q49 0 96 -7.5t87 -16.5t70.5 -18.5t43.5 -15.5q-4 -35 -15.5 -61.5t-27.5 -52.5q-39 16 -109 35.5t-145 19.5q-55 0 -99.5 -12.5t-77 -43t-57 -84t-39.5 -135.5l-16 -86h606l-182 -1044 q-12 -2 -34.5 -3t-37.5 -1q-12 0 -32.5 1t-30.5 3l164 930h-472l-182 -1045q-35 -205 -125 -295t-262 -90q-45 0 -80 6.5t-57 16.5q10 41 19 63l22 52q20 -8 45 -13.5t57 -5.5q49 0 89 10.5t70 39t51.5 82.5t35.5 140l182 1039h-469l-182 -1045q-35 -205 -126 -295t-261 -90 q-45 0 -79.5 6.5t-57.5 16.5z" />
<glyph unicode="&#xfb04;" horiz-adv-x="1837" d="M-180 -477q10 41 19 63l22 52q20 -8 44.5 -13.5t57.5 -5.5q49 0 89 10.5t70 39t51.5 82.5t35.5 140l182 1039h-170q0 29 3 56.5t16 57.5h170l16 93q35 193 125 289t262 96q45 0 80 -6.5t57 -16.5q-10 -41 -20 -63l-23 -52q-20 8 -43.5 14.5t-56.5 6.5q-49 0 -88 -12.5 t-68.5 -43t-52.5 -84t-37 -135.5l-16 -86h477l16 93q35 193 134.5 289t273.5 96q49 0 100 -5.5t100.5 -14.5t92.5 -20.5t73 -21.5q2 -23 3 -40v-34q0 -25 -4.5 -61.5l-9.5 -77.5t-12 -83t-13 -74l-150 -848q-6 -31 -6 -54q0 -33 9 -51t23.5 -27.5t31 -11.5t32.5 -2 q25 0 50.5 4t39.5 9q8 -23 11.5 -52.5t1.5 -54.5q-31 -10 -72 -15t-72 -5q-37 0 -71.5 7t-62.5 25.5t-44 51t-16 81.5q0 27 6 64l141 809l32 195q13 85 17 155q-41 16 -103.5 25.5t-127.5 9.5q-55 0 -99 -12.5t-77 -43t-57.5 -84t-38.5 -135.5l-17 -86h273q0 -29 -3.5 -56 t-15.5 -58h-272l-183 -1045q-35 -205 -125 -295t-262 -90q-45 0 -79.5 6.5t-57.5 16.5q10 41 20 63l21 52q20 -8 45 -13.5t57 -5.5q49 0 89.5 10.5t70 39t51 82.5t35.5 140l183 1039h-478l-182 -1045q-35 -205 -126 -295t-261 -90q-45 0 -79.5 6.5t-57.5 16.5z" />
<glyph horiz-adv-x="1024" d="M487 1735q35 35 81 63.5t106 28.5q45 0 81 -11.5t68.5 -25.5t66.5 -25.5t75 -11.5q35 0 59.5 11.5t62.5 43.5l27 -39q16 -25 21 -47q-35 -33 -82 -61.5t-107 -28.5q-45 0 -80 11.5t-67.5 25.5t-65.5 25.5t-71 11.5q-37 0 -64 -14.5t-61 -40.5q-16 16 -30 38.5t-20 45.5z " />
<glyph horiz-adv-x="1024" d="M446 1593q0 47 8.5 94.5t22.5 88.5q49 6 90 6q51 0 88 -6q0 -96 -30 -183q-43 -6 -90 -6q-46 0 -89 6zM874 1593q0 47 9.5 93.5t21.5 89.5q43 6 90 6q45 0 88 -6q0 -47 -8 -94.5t-22 -88.5q-49 -6 -90 -6q-52 0 -89 6z" />
<glyph horiz-adv-x="1019" d="M397 1593l273 228q18 4 41.5 5t42.5 1q39 0 75 -6l177 -228q-37 -6 -76 -6q-31 0 -74 6l-113 140l-172 -142q-25 -4 -49 -4h-41q-16 0 -42 1t-42 5z" />
<glyph horiz-adv-x="1024" d="M588 1593l266 228q49 6 98 6q27 0 55.5 -1t51.5 -5l-303 -228q-41 -6 -99 -6q-36 0 -69 6z" />
<glyph horiz-adv-x="1024" d="M492 1821q49 6 102 6q51 0 94 -6l189 -228q-20 -4 -37 -5t-37 -1q-53 0 -86 6z" />
</font>
</defs>
</svg>
